<?xml version="1.0" encoding="UTF-8" standalone="no"?>
<!-- Created with Inkscape (http://www.inkscape.org/) -->

<svg
   width="32"
   height="32"
   viewBox="0 0 8.4666666 8.4666666"
   version="1.1"
   id="svg1"
   xml:space="preserve"
   sodipodi:docname="icon.svg"
   inkscape:version="1.4.2 (ebf0e940d0, 2025-05-08)"
   xmlns:inkscape="http://www.inkscape.org/namespaces/inkscape"
   xmlns:sodipodi="http://sodipodi.sourceforge.net/DTD/sodipodi-0.dtd"
   xmlns="http://www.w3.org/2000/svg"
   xmlns:svg="http://www.w3.org/2000/svg"><sodipodi:namedview
     id="namedview1"
     pagecolor="#505050"
     bordercolor="#ffffff"
     borderopacity="1"
     inkscape:showpageshadow="false"
     inkscape:pageopacity="0"
     inkscape:pagecheckerboard="true"
     inkscape:deskcolor="#505050"
     inkscape:document-units="px"
     showgrid="true"
     labelstyle="default"
     inkscape:zoom="36.4375"
     inkscape:cx="16"
     inkscape:cy="16"
     inkscape:window-width="2560"
     inkscape:window-height="1404"
     inkscape:window-x="0"
     inkscape:window-y="0"
     inkscape:window-maximized="1"
     inkscape:current-layer="svg1"><inkscape:grid
       id="grid9"
       units="px"
       originx="0"
       originy="0"
       spacingx="0.26458333"
       spacingy="0.26458333"
       empcolor="#0099e5"
       empopacity="0.30196078"
       color="#0099e5"
       opacity="0.14901961"
       empspacing="8"
       enabled="true"
       visible="true"
       dotted="false" /></sodipodi:namedview><defs
     id="defs1"><inkscape:path-effect
       effect="powerstroke"
       message=""
       id="path-effect16"
       is_visible="true"
       lpeversion="1.3"
       scale_width="7.2555205"
       interpolator_type="CentripetalCatmullRom"
       interpolator_beta="0.2"
       start_linecap_type="zerowidth"
       end_linecap_type="zerowidth"
       offset_points="3.5,0"
       linejoin_type="round"
       miter_limit="4"
       not_jump="false"
       sort_points="true" /><inkscape:path-effect
       effect="fillet_chamfer"
       id="path-effect15"
       is_visible="true"
       lpeversion="1"
       nodesatellites_param="F,0,0,1,0,0.26458333,0,1 @ F,0,0,1,0,0.26458333,0,1 @ F,0,0,1,0,0.26458333,0,1 @ F,0,0,1,0,0.26458333,0,1 @ F,0,0,1,0,0.26458333,0,1 @ F,0,0,1,0,0.26458333,0,1 @ F,0,0,1,0,0.26458333,0,1"
       radius="1"
       unit="px"
       method="auto"
       mode="F"
       chamfer_steps="1"
       flexible="true"
       use_knot_distance="true"
       apply_no_radius="true"
       apply_with_radius="true"
       only_selected="false"
       hide_knots="false" /><inkscape:path-effect
       effect="fill_between_many"
       method="bsplinespiro"
       autoreverse="false"
       close="false"
       join="false"
       linkedpaths="#path9,0,1"
       id="path-effect17" /></defs><g
     inkscape:label="Layer 1"
     inkscape:groupmode="layer"
     id="layer1"
     style="display:inline"><g
       id="g1"
       transform="matrix(0.00912356,0,0,0.00912356,-0.43792939,-0.46016621)"><path
         d="m 0,0 c 0,0 -0.325,1.994 -0.515,1.976 l -36.182,-3.491 c -2.879,-0.278 -5.115,-2.574 -5.317,-5.459 l -0.994,-14.247 -27.992,-1.997 -1.904,12.912 c -0.424,2.872 -2.932,5.037 -5.835,5.037 h -38.188 c -2.902,0 -5.41,-2.165 -5.834,-5.037 l -1.905,-12.912 -27.992,1.997 -0.994,14.247 c -0.202,2.886 -2.438,5.182 -5.317,5.46 l -36.2,3.49 c -0.187,0.018 -0.324,-1.978 -0.511,-1.978 l -0.049,-7.83 30.658,-4.944 1.004,-14.374 c 0.203,-2.91 2.551,-5.263 5.463,-5.472 l 38.551,-2.75 c 0.146,-0.01 0.29,-0.016 0.434,-0.016 2.897,0 5.401,2.166 5.825,5.038 l 1.959,13.286 h 28.005 l 1.959,-13.286 c 0.423,-2.871 2.93,-5.037 5.831,-5.037 0.142,0 0.284,0.005 0.423,0.015 l 38.556,2.75 c 2.911,0.209 5.26,2.562 5.463,5.472 l 1.003,14.374 30.645,4.966 z"
         fill="#ffffff"
         transform="matrix(4.162611,0,0,-4.162611,919.24059,673.15214)"
         id="path1"
         style="display:inline" /><path
         d="m 0,0 v -47.514 -6.035 -5.492 c 0.108,-0.001 0.216,-0.005 0.323,-0.015 l 36.196,-3.49 c 1.896,-0.183 3.382,-1.709 3.514,-3.609 l 1.116,-15.978 31.574,-2.253 2.175,14.747 c 0.282,1.912 1.922,3.329 3.856,3.329 h 38.188 c 1.933,0 3.573,-1.417 3.855,-3.329 l 2.175,-14.747 31.575,2.253 1.115,15.978 c 0.133,1.9 1.618,3.425 3.514,3.609 l 36.182,3.49 c 0.107,0.01 0.214,0.014 0.322,0.015 v 4.711 l 0.015,0.005 V 0 c 5.09692,6.4164715 9.92323,13.494208 13.621,19.449 -5.651,9.62 -12.575,18.217 -19.976,26.182 -6.864,-3.455 -13.531,-7.369 -19.828,-11.534 -3.151,3.132 -6.7,5.694 -10.186,8.372 -3.425,2.751 -7.285,4.768 -10.946,7.118 1.09,8.117 1.629,16.108 1.846,24.448 -9.446,4.754 -19.519,7.906 -29.708,10.17 -4.068,-6.837 -7.788,-14.241 -11.028,-21.479 -3.842,0.642 -7.702,0.88 -11.567,0.926 v 0.006 c -0.027,0 -0.052,-0.006 -0.075,-0.006 -0.024,0 -0.049,0.006 -0.073,0.006 V 63.652 C 93.903,63.606 90.046,63.368 86.203,62.726 82.965,69.964 79.247,77.368 75.173,84.205 64.989,81.941 54.915,78.789 45.47,74.035 45.686,65.695 46.225,57.704 47.318,49.587 43.65,47.237 39.795,45.22 36.369,42.469 32.888,39.791 29.333,37.229 26.181,34.097 19.884,38.262 13.219,42.176 6.353,45.631 -1.048,37.666 -7.968,29.069 -13.621,19.449 -9.1783421,12.475308 -4.4130298,5.4661124 0,0 Z"
         fill="#478cbf"
         transform="matrix(4.162611,0,0,-4.162611,104.69892,427.38725)"
         id="path2"
         style="display:none" /><path
         d="m 0,0 -1.121,-16.063 c -0.135,-1.936 -1.675,-3.477 -3.611,-3.616 l -38.555,-2.751 c -0.094,-0.007 -0.188,-0.01 -0.281,-0.01 -1.916,0 -3.569,1.406 -3.852,3.33 l -2.211,14.994 H -81.09 l -2.211,-14.994 c -0.297,-2.018 -2.101,-3.469 -4.133,-3.32 l -38.555,2.751 c -1.936,0.139 -3.476,1.68 -3.611,3.616 L -130.721,0 -163.268,3.138 c 0.015,-3.498 0.06,-7.33 0.06,-8.093 0,-34.374 43.605,-50.896 97.781,-51.086 h 0.066 0.067 c 54.176,0.19 97.766,16.712 97.766,51.086 0,0.777 0.047,4.593 0.063,8.093 z"
         fill="#478cbf"
         id="path3"
         transform="matrix(4.162611,0,0,-4.162611,784.07144,718.72312)"
         style="display:inline" /><path
         d="m 0,0 c 0,-12.052 -9.765,-21.815 -21.813,-21.815 -12.042,0 -21.81,9.763 -21.81,21.815 0,12.044 9.768,21.802 21.81,21.802 C -9.765,21.802 0,12.044 0,0"
         fill="#ffffff"
         transform="matrix(4.162611,0,0,-4.162611,389.21484,527.15132)"
         id="path4"
         style="display:none" /><path
         d="m 0,0 c 0,-7.994 -6.479,-14.473 -14.479,-14.473 -7.996,0 -14.479,6.479 -14.479,14.473 0,7.994 6.483,14.479 14.479,14.479 C -6.479,14.479 0,7.994 0,0"
         fill="#414042"
         transform="matrix(4.162611,0,0,-4.162611,367.36686,532.53707)"
         id="path5"
         style="display:none" /><path
         d="m 0,0 c -3.878,0 -7.021,2.858 -7.021,6.381 v 20.081 c 0,3.52 3.143,6.381 7.021,6.381 3.878,0 7.028,-2.861 7.028,-6.381 V 6.381 C 7.028,2.858 3.878,0 0,0"
         fill="#ffffff"
         transform="matrix(4.162611,0,0,-4.162611,511.99336,626.21982)"
         id="path6"
         style="display:none" /><path
         d="m 0,0 c 0,-12.052 9.765,-21.815 21.815,-21.815 12.041,0 21.808,9.763 21.808,21.815 0,12.044 -9.767,21.802 -21.808,21.802 C 9.765,21.802 0,12.044 0,0"
         fill="#ffffff"
         transform="matrix(4.162611,0,0,-4.162611,634.78706,527.15132)"
         id="path7"
         style="display:none" /><path
         d="m 0,0 c 0,-7.994 6.477,-14.473 14.471,-14.473 8.002,0 14.479,6.479 14.479,14.473 0,7.994 -6.477,14.479 -14.479,14.479 C 6.477,14.479 0,7.994 0,0"
         fill="#414042"
         transform="matrix(4.162611,0,0,-4.162611,656.64056,532.53707)"
         id="path8"
         style="display:none" /></g></g><path
     d="m 6.7155935,6.0971475 -0.042573,0.6100379 c -0.00513,0.073525 -0.063613,0.1320489 -0.137138,0.1373278 l -1.4642352,0.104477 c -0.00357,2.655e-4 -0.00714,3.795e-4 -0.010672,3.795e-4 -0.072766,0 -0.1355428,-0.053397 -0.1462906,-0.1264661 L 4.8307157,6.253464 H 3.6359711 l -0.083969,0.5694396 c -0.011279,0.076639 -0.079791,0.131745 -0.1569623,0.1260863 L 1.9308045,6.8445132 C 1.8572794,6.8392343 1.7987936,6.7807105 1.7936665,6.7071854 L 1.7510934,6.0971475 0.51502893,5.9779731 c 5.6931e-4,0.1328464 0.002279,0.2783775 0.002279,0.3073545 0,1.30545 1.65602337,1.9329197 3.71351037,1.9401355 h 0.00251 0.00254 c 2.0574869,-0.00722 3.7129405,-0.6346855 3.7129405,-1.9401355 0,-0.029509 0.00179,-0.1744321 0.00239,-0.3073545 z"
     fill="#478cbf"
     id="path3-3"
     style="display:inline;stroke-width:0.0379778" /><path
     inkscape:original-d="M 0,0"
     inkscape:path-effect="#path-effect17"
     d="M 3.4395832,0.26458338 V 3.4395832 L 2.1166665,3.4395831 4.233333,5.5562497 6.3499997,3.4395832 H 5.0270831 V 0.26458329 Z"
     id="path17"
     style="fill:#478cbf" /><path
     style="fill:#000000;fill-opacity:1;fill-rule:nonzero;stroke:#000000;stroke-width:0.21166667;stroke-dasharray:none;stroke-opacity:1"
     d="m 3.4395832,0.26458338 c 0,0.66574257 0,1.81009552 0,3.17499982 -0.4070383,0 -0.8611513,-10e-8 -1.3229167,-10e-8 0.7130516,0.7130516 1.4375077,1.4375077 2.1166662,2.1166663 0.3692007,-0.3692001 0.7250148,-0.7250141 1.0583336,-1.058333 0.3333189,-0.3333188 0.689133,-0.6891328 1.0583332,-1.058333 -0.4244741,-2e-7 -0.8772592,-2e-7 -1.3229164,-2e-7 0,-1.1082369 0,-2.198108 0,-3.17499991 -0.6824521,4e-8 -1.2546286,7e-8 -1.5874999,9e-8 z m 0,0 c 0.3328713,-2e-8 0.9050478,-5e-8 1.5874999,-9e-8 0,0.97689191 0,2.06676301 0,3.17499991 0.4456572,0 0.8984423,0 1.3229164,0 C 5.9807993,3.8087836 5.6249852,4.1645976 5.2916663,4.4979164 4.9583475,4.8312353 4.6025334,5.1870493 4.2333332,5.5562495 3.5541742,4.8770908 2.8297181,4.1526347 2.1166665,3.4395831 c 0.4617654,0 0.9158784,10e-8 1.3229167,10e-8 0,-1.3649043 0,-2.50925725 0,-3.17499982 z"
     id="path9"
     sodipodi:nodetypes="cccccccc"
     inkscape:path-effect="#path-effect16"
     inkscape:original-d="M 3.4395832,0.26458338 V 3.4395832 L 2.1166665,3.4395831 4.233333,5.5562497 6.3499997,3.4395832 H 5.0270831 V 0.26458329 Z"
     inkscape:linked-fill="path17" /></svg>
