<?xml version="1.0" encoding="UTF-8" standalone="no"?>
<!-- Created with Inkscape (http://www.inkscape.org/) -->

<svg
   width="32"
   height="32"
   viewBox="0 0 8.4666666 8.4666666"
   version="1.1"
   id="svg1"
   xml:space="preserve"
   sodipodi:docname="godl.svg"
   inkscape:version="1.4.2 (ebf0e940d0, 2025-05-08)"
   inkscape:export-filename="icon3.png"
   inkscape:export-xdpi="1536"
   inkscape:export-ydpi="1536"
   xmlns:inkscape="http://www.inkscape.org/namespaces/inkscape"
   xmlns:sodipodi="http://sodipodi.sourceforge.net/DTD/sodipodi-0.dtd"
   xmlns="http://www.w3.org/2000/svg"
   xmlns:svg="http://www.w3.org/2000/svg"><sodipodi:namedview
     id="namedview1"
     pagecolor="#505050"
     bordercolor="#ffffff"
     borderopacity="1"
     inkscape:showpageshadow="0"
     inkscape:pageopacity="0"
     inkscape:pagecheckerboard="1"
     inkscape:deskcolor="#505050"
     inkscape:zoom="24.838387"
     inkscape:cx="8.0923128"
     inkscape:cy="18.761282"
     inkscape:window-width="2560"
     inkscape:window-height="1404"
     inkscape:window-x="0"
     inkscape:window-y="0"
     inkscape:window-maximized="1"
     inkscape:current-layer="svg1"
     showgrid="true"><inkscape:grid
       id="grid1"
       units="px"
       originx="0"
       originy="0"
       spacingx="0.26458333"
       spacingy="0.26458333"
       empcolor="#0099e5"
       empopacity="0.30196078"
       color="#0099e5"
       opacity="0.14901961"
       empspacing="5"
       enabled="true"
       visible="true" /></sodipodi:namedview><defs
     id="defs1"><inkscape:path-effect
       effect="fillet_chamfer"
       id="path-effect1"
       is_visible="true"
       lpeversion="1"
       nodesatellites_param="F,0,0,1,0,0,0,1 @ F,0,0,1,0,0,0,1 @ F,0,0,1,0,0,0,1 @ F,0,0,1,0,0,0,1 @ F,0,0,1,0,0,0,1 @ F,0,0,1,0,0,0,1 @ F,0,0,1,0,0,0,1 @ F,0,0,1,0,0,0,1 @ F,0,0,1,0,0,0,1 @ F,0,0,1,0,0,0,1 @ F,0,0,1,0,0,0,1 @ F,0,0,1,0,0,0,1 @ F,0,0,1,0,0,0,1 @ F,0,0,1,0,0,0,1 @ F,0,0,1,0,0,0,1 @ F,0,0,1,0,0,0,1 @ F,0,0,1,0,0,0,1 @ F,0,0,1,0,0,0,1 @ F,0,0,1,0,0,0,1 @ F,0,0,1,0,0,0,1 @ F,0,0,1,0,0,0,1 @ F,0,0,1,0,0,0,1 @ F,0,0,1,0,0,0,1 @ F,0,0,1,0,0,0,1 @ F,0,0,1,0,0,0,1 @ F,0,0,1,0,0,0,1 @ F,0,0,1,0,0,0,1 @ F,0,0,1,0,0,0,1 @ F,0,0,1,0,0,0,1 @ F,0,0,1,0,0,0,1 @ F,0,0,1,0,0,0,1 @ F,0,0,1,0,0,0,1 @ F,0,0,1,0,0,0,1 @ F,0,0,1,0,0,0,1 @ F,0,0,1,0,0,0,1 @ F,0,0,1,0,0,0,1 @ F,0,0,1,0,0,0,1 @ F,0,0,1,0,0,0,1 @ F,0,0,1,0,0,0,1 @ F,0,0,1,0,0,0,1 @ F,0,0,1,0,0,0,1 @ F,0,0,1,0,0,0,1 @ F,0,0,1,0,0,0,1 @ F,0,0,1,0,0,0,1 @ F,0,0,1,0,0,0,1 @ F,0,0,1,0,0,0,1 @ F,0,0,1,0,0,0,1 @ F,0,0,1,0,0,0,1 @ F,0,0,1,0,0,0,1 @ F,0,0,1,0,0,0,1 @ F,0,0,1,0,0,0,1 @ F,0,0,1,0,0,0,1 @ F,0,0,1,0,0,0,1 @ F,0,0,1,0,0,0,1 @ F,0,0,1,0,0,0,1 @ F,0,0,1,0,0,0,1 @ F,0,0,1,0,0,0,1 @ F,0,0,1,0,0.35147901,0,1 @ F,0,0,1,0,0.46422879,0,1 @ F,0,0,1,0,0,0,1 @ F,0,0,1,0,0,0,1 @ F,0,0,1,0,0,0,1 @ F,0,0,1,0,0,0,1 @ F,0,0,1,0,0,0,1 @ F,0,0,1,0,0,0,1 @ F,0,0,1,0,0,0,1 @ F,0,0,1,0,0,0,1 @ F,0,0,1,0,0,0,1 @ F,0,0,1,0,0,0,1 @ F,0,0,1,0,0,0,1 @ F,0,0,1,0,0,0,1 @ F,0,0,1,0,0,0,1 @ F,0,0,1,0,0,0,1 @ F,0,0,1,0,0,0,1 @ F,0,0,1,0,0,0,1 @ F,0,0,1,0,0,0,1 @ F,0,0,1,0,0,0,1 @ F,0,0,1,0,0,0,1 @ F,0,0,1,0,0,0,1 @ F,0,0,1,0,0,0,1 @ F,0,0,1,0,0,0,1 | F,0,0,1,0,0,0,1 @ F,0,0,1,0,0,0,1 @ F,0,0,1,0,0,0,1"
       radius="0"
       unit="px"
       method="auto"
       mode="F"
       chamfer_steps="1"
       flexible="false"
       use_knot_distance="true"
       apply_no_radius="true"
       apply_with_radius="true"
       only_selected="false"
       hide_knots="false" /><filter
       id="selectable_hidder_filter"
       width="1"
       height="1"
       x="0"
       y="0"
       style="color-interpolation-filters:sRGB;"><feComposite
         id="boolops_hidder_primitive"
         result="composite1"
         operator="arithmetic"
         in2="SourceGraphic"
         in="BackgroundImage" /></filter></defs><path
     id="path9"
     style="display:inline;fill:#478cbf;fill-opacity:1;stroke-width:0.0366007"
     d="M 3.5618218,0.38834817 C 3.1893989,0.47114134 2.8204614,0.58670204 2.4750631,0.76055309 2.4829621,1.0655421 2.5027666,1.3589018 2.5427368,1.6557358 2.4086002,1.7416739 2.2674555,1.8148805 2.1421687,1.9154831 2.0148704,2.013416 1.8847329,2.1074695 1.7694661,2.2220048 1.5391884,2.0696932 1.2945532,1.9268848 1.0434675,1.8005374 0.77281721,2.091813 0.52071266,2.4061223 0.3139857,2.7579201 0.47645113,3.0129441 0.65119908,3.2690982 0.81258105,3.4689907 V 4.9314376 H 0 L 1.2036948,6.1669788 2.4073895,4.9314376 H 1.5853541 V 3.7153028 C 1.7318926,3.4444266 1.9088861,3.196777 2.1063415,2.9778593 l 0.00199,-0.00149 L 2.3148356,2.771358 C 2.3739956,2.71257 2.474677,2.6356284 2.6138936,2.5285264 l 0.00597,-0.00547 0.00746,-0.00398 C 2.6733967,2.4820809 2.7856592,2.4184636 2.9602233,2.3065968 l 0.1388305,-0.090066 h 0.00199 C 3.277911,2.1299306 3.4584402,2.0621551 3.6449211,2.0130127 h 0.00149 l 0.4458498,-0.073147 c 0.00281,-4.7e-4 0.035362,-0.00537 0.096037,-0.011445 0.065459,-0.00643 0.129094,-0.010952 0.1900832,-0.012937 0.00266,5.91e-5 0.0048,-6.68e-5 0.00746,0 h 0.00945 0.00746 c 0.065019,0.00199 0.1287993,0.00669 0.191576,0.012937 0.055719,0.0057 0.087845,0.010408 0.094047,0.011445 l 0.4324145,0.071655 h 0.00199 c 0.1978424,0.051991 0.391863,0.1237741 0.5792066,0.2179488 h 0.00199 v 0.00199 l 0.1164385,0.075138 c 0.1750655,0.1123748 0.2873367,0.1758827 0.3328944,0.2124753 l 0.00796,0.00398 0.00547,0.00547 c 0.046991,0.036099 0.092285,0.070626 0.1373376,0.1054912 0.043834,0.035249 0.084985,0.070718 0.1219121,0.1035009 0.023741,0.021286 0.050414,0.044379 0.039808,0.033837 l 0.1821216,0.1801312 0.00199,0.00398 C 6.8568916,3.1817889 7.0424818,3.4394268 7.1952982,3.7247572 V 5.454913 5.701225 5.9888379 c -5.702e-4,0.086117 -0.00149,0.2016355 -0.00149,0.2204368 0,0.1506903 -0.032993,0.2366107 -0.1189265,0.3478226 C 6.9889428,6.6683091 6.8322654,6.7964378 6.5897188,6.9123838 6.1046257,7.1442755 5.3033283,7.298309 4.3933117,7.3015071 h -0.00398 C 3.4766033,7.2983061 2.6760264,7.1442758 2.1909335,6.9123838 2.1214677,6.8791766 2.0590532,6.844958 2.0033293,6.8104184 1.8389701,6.7085426 1.622396,6.7017172 1.4870124,6.8408305 1.3231179,7.00924 1.3333545,7.3006884 1.5477322,7.4401986 2.200054,7.864709 3.2272246,8.0726995 4.3873405,8.0767681 h 0.00199 0.00398 c 1.9811852,-0.00695 3.5752572,-0.6104557 3.5752571,-1.8674934 0,-0.028415 9.055e-4,-0.1675814 0.00149,-0.2955744 h -0.00149 V 5.6280778 5.454913 3.4689907 C 8.1549601,3.234344 8.3314413,2.9756835 8.4666666,2.7579201 8.2600127,2.4061223 8.0078351,2.091813 7.7371848,1.8005374 7.4861723,1.9268848 7.2414638,2.0696932 7.0111861,2.2220048 6.895956,2.1074695 6.7664623,2.013416 6.6389813,1.9154831 6.5137311,1.8148805 6.3722936,1.7416739 6.2384131,1.6557358 6.2782737,1.3589018 6.2981512,1.0655421 6.3060867,0.76055309 5.9606519,0.58670204 5.5914362,0.47114134 5.2188304,0.38834817 5.070066,0.63837333 4.9347569,0.90986694 4.8162719,1.1745564 4.6757722,1.1510789 4.5346527,1.1424018 4.3933117,1.1407196 h -0.00199 -0.00199 -0.00199 C 4.245743,1.1424057 4.1049167,1.1510785 3.9643804,1.1745564 3.8459657,0.90986645 3.7108057,0.63837333 3.5618218,0.38834817 Z M 7.9621,5.6275802 c 0.00168,3.83e-5 0.00371,4.835e-4 0.00547,4.976e-4 H 7.95712 C 7.95891,5.627911 7.96042,5.6275419 7.9621,5.6275802 Z"
     inkscape:path-effect="#path-effect1"
     inkscape:original-d="M 3.5618218,0.38834817 C 3.1893989,0.47114134 2.8204614,0.58670204 2.4750631,0.76055309 2.4829621,1.0655421 2.5027666,1.3589018 2.5427368,1.6557358 2.4086002,1.7416739 2.2674555,1.8148805 2.1421687,1.9154831 2.0148704,2.013416 1.8847329,2.1074695 1.7694661,2.2220048 1.5391884,2.0696932 1.2945532,1.9268848 1.0434675,1.8005374 0.77281721,2.091813 0.52071266,2.4061223 0.3139857,2.7579201 0.47645113,3.0129441 0.65119908,3.2690982 0.81258105,3.4689907 V 4.9314376 H 0 L 1.2036948,6.1669788 2.4073895,4.9314376 H 1.5853541 V 3.7153028 C 1.7318926,3.4444266 1.9088861,3.196777 2.1063415,2.9778593 l 0.00199,-0.00149 L 2.3148356,2.771358 C 2.3739956,2.71257 2.474677,2.6356284 2.6138936,2.5285264 l 0.00597,-0.00547 0.00746,-0.00398 C 2.6733967,2.4820809 2.7856592,2.4184636 2.9602233,2.3065968 l 0.1388305,-0.090066 h 0.00199 C 3.277911,2.1299306 3.4584402,2.0621551 3.6449211,2.0130127 h 0.00149 l 0.4458498,-0.073147 c 0.00281,-4.7e-4 0.035362,-0.00537 0.096037,-0.011445 0.065459,-0.00643 0.129094,-0.010952 0.1900832,-0.012937 0.00266,5.91e-5 0.0048,-6.68e-5 0.00746,0 h 0.00945 0.00746 c 0.065019,0.00199 0.1287993,0.00669 0.191576,0.012937 0.055719,0.0057 0.087845,0.010408 0.094047,0.011445 l 0.4324145,0.071655 h 0.00199 c 0.1978424,0.051991 0.391863,0.1237741 0.5792066,0.2179488 h 0.00199 v 0.00199 l 0.1164385,0.075138 c 0.1750655,0.1123748 0.2873367,0.1758827 0.3328944,0.2124753 l 0.00796,0.00398 0.00547,0.00547 c 0.046991,0.036099 0.092285,0.070626 0.1373376,0.1054912 0.043834,0.035249 0.084985,0.070718 0.1219121,0.1035009 0.023741,0.021286 0.050414,0.044379 0.039808,0.033837 l 0.1821216,0.1801312 0.00199,0.00398 C 6.8568916,3.1817889 7.0424818,3.4394268 7.1952982,3.7247572 V 5.454913 5.701225 5.9888379 c -5.702e-4,0.086117 -0.00149,0.2016355 -0.00149,0.2204368 0,0.1506903 -0.032993,0.2366107 -0.1189265,0.3478226 C 6.9889428,6.6683091 6.8322654,6.7964378 6.5897188,6.9123838 6.1046257,7.1442755 5.3033283,7.298309 4.3933117,7.3015071 h -0.00398 C 3.4766033,7.2983061 2.6760264,7.1442758 2.1909335,6.9123838 1.9713338,6.8074072 1.8222011,6.6923221 1.7321461,6.5889437 L 1.1902596,7.1457583 c 0.5865236,0.6231732 1.7946629,0.9260914 3.1970809,0.9310098 h 0.00199 0.00398 c 1.9811852,-0.00695 3.5752572,-0.6104557 3.5752571,-1.8674934 0,-0.028415 9.055e-4,-0.1675814 0.00149,-0.2955744 h -0.00149 V 5.6280778 5.454913 3.4689907 C 8.1549601,3.234344 8.3314413,2.9756835 8.4666666,2.7579201 8.2600127,2.4061223 8.0078351,2.091813 7.7371848,1.8005374 7.4861723,1.9268848 7.2414638,2.0696932 7.0111861,2.2220048 6.895956,2.1074695 6.7664623,2.013416 6.6389813,1.9154831 6.5137311,1.8148805 6.3722936,1.7416739 6.2384131,1.6557358 6.2782737,1.3589018 6.2981512,1.0655421 6.3060867,0.76055309 5.9606519,0.58670204 5.5914362,0.47114134 5.2188304,0.38834817 5.070066,0.63837333 4.9347569,0.90986694 4.8162719,1.1745564 4.6757722,1.1510789 4.5346527,1.1424018 4.3933117,1.1407196 h -0.00199 -0.00199 -0.00199 C 4.245743,1.1424057 4.1049167,1.1510785 3.9643804,1.1745564 3.8459657,0.90986645 3.7108057,0.63837333 3.5618218,0.38834817 Z M 7.9621,5.6275802 c 0.00168,3.83e-5 0.00371,4.835e-4 0.00547,4.976e-4 H 7.95712 C 7.95891,5.627911 7.96042,5.6275419 7.9621,5.6275802 Z" /><g
     id="g3"
     transform="matrix(1.0807659,0,0,1.0809145,-0.09905586,-0.33398154)"
     style="display:inline"><path
       d="M 1.8053276,3.982252 C 1.8043159,4.3880634 1.4746921,4.7159806 1.0690153,4.7149692 0.66354061,4.7139582 0.3354549,4.3844013 0.33646665,3.9785899 0.33747772,3.5730478 0.66720219,3.2452993 1.0726769,3.2463102 1.4783536,3.2473217 1.8063387,3.5767099 1.8053276,3.982252"
       fill="#ffffff"
       id="path4"
       style="display:inline;stroke-width:0.0336718" /><path
       d="M 1.6284888,4.0253771 C 1.6278177,4.2945488 1.4091148,4.5121638 1.1397412,4.5114922 0.8705022,4.510821 0.65275239,4.2921178 0.65342348,4.0229461 0.65409456,3.7537745 0.87293268,3.5359577 1.1421716,3.536629 1.4115453,3.5373005 1.6291599,3.7562055 1.6284888,4.0253771"
       fill="#414042"
       id="path5"
       style="display:inline;stroke-width:0.0336718" /></g><g
     id="g2"
     transform="matrix(1.0785472,0,0,1.0785472,-0.18578823,-0.33558815)"
     style="display:inline"><path
       d="M 2.3800911,3.9872045 C 2.3790793,4.3930159 2.7070639,4.7225726 3.1128081,4.7235842 3.5182491,4.724595 3.8479403,4.396678 3.848952,3.9908665 3.8499631,3.5853245 3.5219107,3.2559361 3.1164697,3.2549252 2.7107255,3.2539137 2.3811021,3.5816624 2.3800911,3.9872045"
       fill="#ffffff"
       id="path7"
       style="display:inline;stroke-width:0.0336718" /><path
       d="M 2.5567573,4.031211 C 2.5560862,4.3003826 2.773634,4.5190853 3.0428056,4.5197564 3.3122467,4.5204281 3.5308822,4.3028129 3.5315533,4.0336413 3.5322244,3.7644696 3.3146771,3.5455649 3.0452361,3.5448931 2.7760644,3.544222 2.5574284,3.7620393 2.5567573,4.031211"
       fill="#414042"
       id="path8"
       style="display:inline;stroke-width:0.0336718" /></g></svg>
