<?xml version="1.0" encoding="UTF-8" standalone="no"?>
<!-- Created with Inkscape (http://www.inkscape.org/) -->

<svg
   width="32"
   height="32"
   viewBox="0 0 8.4666666 8.4666666"
   version="1.1"
   id="svg1"
   xml:space="preserve"
   sodipodi:docname="godl.svg"
   inkscape:version="1.4.2 (ebf0e940d0, 2025-05-08)"
   inkscape:export-filename="icon3.png"
   inkscape:export-xdpi="1536"
   inkscape:export-ydpi="1536"
   xmlns:inkscape="http://www.inkscape.org/namespaces/inkscape"
   xmlns:sodipodi="http://sodipodi.sourceforge.net/DTD/sodipodi-0.dtd"
   xmlns="http://www.w3.org/2000/svg"
   xmlns:svg="http://www.w3.org/2000/svg"><sodipodi:namedview
     id="namedview1"
     pagecolor="#505050"
     bordercolor="#ffffff"
     borderopacity="1"
     inkscape:showpageshadow="0"
     inkscape:pageopacity="0"
     inkscape:pagecheckerboard="1"
     inkscape:deskcolor="#505050"
     inkscape:zoom="30.068924"
     inkscape:cx="10.226505"
     inkscape:cy="19.355532"
     inkscape:window-width="2560"
     inkscape:window-height="1404"
     inkscape:window-x="0"
     inkscape:window-y="0"
     inkscape:window-maximized="1"
     inkscape:current-layer="svg1"
     showgrid="true"><inkscape:grid
       id="grid1"
       units="px"
       originx="0"
       originy="0"
       spacingx="0.26458333"
       spacingy="0.26458333"
       empcolor="#0099e5"
       empopacity="0.30196078"
       color="#0099e5"
       opacity="0.14901961"
       empspacing="5"
       enabled="true"
       visible="true" /></sodipodi:namedview><defs
     id="defs1"><inkscape:path-effect
       effect="fillet_chamfer"
       id="path-effect3"
       is_visible="true"
       lpeversion="1"
       nodesatellites_param="F,0,0,1,0,0,0,1 @ F,0,0,1,0,0,0,1 @ F,0,0,1,0,0,0,1 @ F,0,0,1,0,0,0,1 @ F,0,0,1,0,0,0,1 @ F,0,0,1,0,0,0,1 @ F,0,0,1,0,0,0,1 @ F,0,0,1,0,0,0,1 @ F,0,0,1,0,0,0,1 @ F,0,0,1,0,0,0,1 @ F,0,0,1,0,0,0,1 @ F,0,0,1,0,0,0,1 @ F,0,0,1,0,0,0,1 @ F,0,0,1,0,0,0,1 @ F,0,0,1,0,0,0,1 @ F,0,0,1,0,0,0,1 @ F,0,0,1,0,0,0,1 @ F,0,0,1,0,0,0,1 @ F,0,0,1,0,0,0,1 @ F,0,0,1,0,0,0,1 @ F,0,0,1,0,0,0,1 @ F,0,0,1,0,0,0,1 @ F,0,0,1,0,0,0,1 @ F,0,0,1,0,0,0,1 @ F,0,0,1,0,0,0,1 @ F,0,0,1,0,0,0,1 @ F,0,0,1,0,0,0,1 @ F,0,0,1,0,0,0,1 @ F,0,0,1,0,0,0,1 @ F,0,0,1,0,0,0,1 @ F,0,0,1,0,0,0,1 @ F,0,0,1,0,0,0,1 @ F,0,0,1,0,0,0,1 @ F,0,0,1,0,0,0,1 @ F,0,0,1,0,0,0,1 @ F,0,0,1,0,0,0,1 @ F,0,0,1,0,0,0,1 @ F,0,0,1,0,0,0,1 @ F,0,0,1,0,0,0,1 @ F,0,0,1,0,0,0,1 @ F,0,0,1,0,0,0,1 @ F,0,0,1,0,0,0,1 @ F,0,0,1,0,0,0,1 @ F,0,0,1,0,0,0,1 @ F,0,0,1,0,0,0,1 @ F,0,0,1,0,0,0,1 @ F,0,0,1,0,0,0,1 @ F,0,0,1,0,0,0,1 @ F,0,0,1,0,0,0,1 @ F,0,0,1,0,0,0,1 @ F,0,0,1,0,0,0,1 @ F,0,0,1,0,0,0,1 @ F,0,0,1,0,0,0,1 @ F,0,0,1,0,0,0,1 @ F,0,0,1,0,0,0,1 @ F,0,0,1,0,0,0,1 @ F,0,0,1,0,0,0,1 @ F,0,0,1,0,0.35147901,0,1 @ F,0,0,1,0,0.46422879,0,1 @ F,0,0,1,0,0,0,1 @ F,0,0,1,0,0,0,1 @ F,0,0,1,0,0,0,1 @ F,0,0,1,0,0,0,1 @ F,0,0,1,0,0,0,1 @ F,0,0,1,0,0,0,1 @ F,0,0,1,0,0,0,1 @ F,0,0,1,0,0,0,1 @ F,0,0,1,0,0,0,1 @ F,0,0,1,0,0,0,1 @ F,0,0,1,0,0,0,1 @ F,0,0,1,0,0,0,1 @ F,0,0,1,0,0,0,1 @ F,0,0,1,0,0,0,1 @ F,0,0,1,0,0,0,1 @ F,0,0,1,0,0,0,1 @ F,0,0,1,0,0,0,1 @ F,0,0,1,0,0,0,1 @ F,0,0,1,0,0,0,1 @ F,0,0,1,0,0,0,1 @ F,0,0,1,0,0,0,1 @ F,0,0,1,0,0,0,1 | F,0,0,1,0,0,0,1 @ F,0,0,1,0,0,0,1 @ F,0,0,1,0,0,0,1"
       radius="0"
       unit="px"
       method="auto"
       mode="F"
       chamfer_steps="1"
       flexible="false"
       use_knot_distance="true"
       apply_no_radius="true"
       apply_with_radius="true"
       only_selected="false"
       hide_knots="false" /><inkscape:path-effect
       effect="fillet_chamfer"
       id="path-effect1"
       is_visible="true"
       lpeversion="1"
       nodesatellites_param="F,0,0,1,0,0,0,1 @ F,0,0,1,0,0,0,1 @ F,0,0,1,0,0,0,1 @ F,0,0,1,0,0,0,1 @ F,0,0,1,0,0,0,1 @ F,0,0,1,0,0,0,1 @ F,0,0,1,0,0,0,1 @ F,0,0,1,0,0,0,1 @ F,0,0,1,0,0,0,1 @ F,0,0,1,0,0,0,1 @ F,0,0,1,0,0,0,1 @ F,0,0,1,0,0,0,1 @ F,0,0,1,0,0,0,1 @ F,0,0,1,0,0,0,1 @ F,0,0,1,0,0,0,1 @ F,0,0,1,0,0,0,1 @ F,0,0,1,0,0,0,1 @ F,0,0,1,0,0,0,1 @ F,0,0,1,0,0,0,1 @ F,0,0,1,0,0,0,1 @ F,0,0,1,0,0,0,1 @ F,0,0,1,0,0,0,1 @ F,0,0,1,0,0,0,1 @ F,0,0,1,0,0,0,1 @ F,0,0,1,0,0,0,1 @ F,0,0,1,0,0,0,1 @ F,0,0,1,0,0,0,1 @ F,0,0,1,0,0,0,1 @ F,0,0,1,0,0,0,1 @ F,0,0,1,0,0,0,1 @ F,0,0,1,0,0,0,1 @ F,0,0,1,0,0,0,1 @ F,0,0,1,0,0,0,1 @ F,0,0,1,0,0,0,1 @ F,0,0,1,0,0,0,1 @ F,0,0,1,0,0,0,1 @ F,0,0,1,0,0,0,1 @ F,0,0,1,0,0,0,1 @ F,0,0,1,0,0,0,1 @ F,0,0,1,0,0,0,1 @ F,0,0,1,0,0,0,1 @ F,0,0,1,0,0,0,1 @ F,0,0,1,0,0,0,1 @ F,0,0,1,0,0,0,1 @ F,0,0,1,0,0,0,1 @ F,0,0,1,0,0,0,1 @ F,0,0,1,0,0,0,1 @ F,0,0,1,0,0,0,1 @ F,0,0,1,0,0,0,1 @ F,0,0,1,0,0,0,1 @ F,0,0,1,0,0,0,1 @ F,0,0,1,0,0,0,1 @ F,0,0,1,0,0,0,1 @ F,0,0,1,0,0,0,1 @ F,0,0,1,0,0,0,1 @ F,0,0,1,0,0,0,1 @ F,0,0,1,0,0,0,1 @ F,0,0,1,0,0.35147901,0,1 @ F,0,0,1,0,0.46422879,0,1 @ F,0,0,1,0,0,0,1 @ F,0,0,1,0,0,0,1 @ F,0,0,1,0,0,0,1 @ F,0,0,1,0,0,0,1 @ F,0,0,1,0,0,0,1 @ F,0,0,1,0,0,0,1 @ F,0,0,1,0,0,0,1 @ F,0,0,1,0,0,0,1 @ F,0,0,1,0,0,0,1 @ F,0,0,1,0,0,0,1 @ F,0,0,1,0,0,0,1 @ F,0,0,1,0,0,0,1 @ F,0,0,1,0,0,0,1 @ F,0,0,1,0,0,0,1 @ F,0,0,1,0,0,0,1 @ F,0,0,1,0,0,0,1 @ F,0,0,1,0,0,0,1 @ F,0,0,1,0,0,0,1 @ F,0,0,1,0,0,0,1 @ F,0,0,1,0,0,0,1 @ F,0,0,1,0,0,0,1 @ F,0,0,1,0,0,0,1 | F,0,0,1,0,0,0,1 @ F,0,0,1,0,0,0,1 @ F,0,0,1,0,0,0,1"
       radius="0"
       unit="px"
       method="auto"
       mode="F"
       chamfer_steps="1"
       flexible="false"
       use_knot_distance="true"
       apply_no_radius="true"
       apply_with_radius="true"
       only_selected="false"
       hide_knots="false" /><filter
       id="selectable_hidder_filter"
       width="1"
       height="1"
       x="0"
       y="0"
       style="color-interpolation-filters:sRGB;"><feComposite
         id="boolops_hidder_primitive"
         result="composite1"
         operator="arithmetic"
         in2="SourceGraphic"
         in="BackgroundImage" /></filter></defs><path
     id="path6"
     style="baseline-shift:baseline;display:inline;overflow:visible;vector-effect:none;fill:#414042;stroke-width:0.909896;stroke-linecap:round;stroke-linejoin:round;enable-background:accumulate;stop-color:#000000;fill-opacity:1"
     d="M 2.3572271,2.7595086 A 0.23282999,0.23374785 0 0 0 2.1249345,2.9946015 V 6.3565703 A 0.23282999,0.23374785 0 0 0 2.3572271,6.5897786 H 6.0466902 A 0.23282999,0.23374785 0 0 0 6.2789827,6.3565703 V 2.9946015 A 0.23282999,0.23374785 0 0 0 6.0466902,2.7595086 Z" /><path
     style="fill:#414042;fill-opacity:1;stroke:none;stroke-width:0;stroke-linecap:round;stroke-linejoin:round;stroke-dasharray:none;stroke-opacity:1"
     d="m 2.0086204,6.2960426 c 0,0 0.00171,-0.3533354 -0.058225,-0.4752096 C 1.890458,5.6989588 1.8189391,5.6068144 1.7656351,5.5520394 L 1.6057224,5.3877135 2.2479873,5.2297129 2.4529402,5.9085385 Z"
     id="path12"
     sodipodi:nodetypes="czzcccc" /><path
     style="baseline-shift:baseline;display:inline;overflow:visible;vector-effect:none;fill:#414042;stroke-width:0.688466;stroke-linecap:round;stroke-linejoin:round;enable-background:accumulate;stop-color:#000000;fill-opacity:1"
     d="m 3.7710204,1.5859499 c -0.2564005,0.057 -0.5104015,0.13656 -0.7481965,0.2562505 0.00544,0.2099746 0.019073,0.4119428 0.046591,0.6163029 C 2.9770664,2.5176688 2.8798931,2.5680691 2.7936374,2.6373305 2.7059968,2.704754 2.6164016,2.7695067 2.5370443,2.8483603 2.3785059,2.743499 2.2100829,2.6451802 2.0372189,2.5581943 1.8508853,2.7587277 1.6773199,2.975119 1.5349954,3.2173198 c 0.1118519,0.1755754 0.23216,0.3519288 0.343266,0.489548 V 4.7137129 H 1.3188269 l 0.828703,0.8506282 0.828703,-0.8506282 H 2.4102894 V 3.8764454 C 2.5111762,3.6899563 2.6330302,3.5194579 2.7689716,3.3687405 l 0.00137,-0.00103 0.1421711,-0.1411433 c 0.04073,-0.040474 0.1100454,-0.093445 0.2058913,-0.1671813 l 0.00411,-0.00377 0.00514,-0.00274 c 0.03172,-0.02547 0.1090087,-0.069269 0.2291901,-0.146285 l 0.09558,-0.062007 h 0.00137 c 0.121767,-0.059621 0.2460553,-0.1062825 0.374441,-0.1401153 h 0.00103 l 0.3069524,-0.050359 c 0.00193,-3.235e-4 0.024346,-0.0037 0.066118,-0.00788 0.045066,-0.00443 0.088877,-0.00754 0.1308659,-0.00891 0.00183,4.06e-5 0.0033,-4.6e-5 0.00514,0 h 0.00651 0.00514 c 0.044763,0.00137 0.088674,0.00461 0.1318936,0.00891 0.038361,0.00392 0.060478,0.00717 0.064748,0.00788 l 0.2977028,0.049332 h 0.00137 c 0.1362078,0.035794 0.2697844,0.085214 0.3987641,0.1500503 h 0.00137 v 0.00137 l 0.080164,0.05173 c 0.1205267,0.077366 0.1978216,0.1210893 0.2291865,0.1462821 l 0.00548,0.00274 0.00377,0.00377 c 0.032352,0.024853 0.063535,0.048624 0.094552,0.072627 0.030178,0.024268 0.058509,0.048687 0.083932,0.071257 0.016345,0.014655 0.034708,0.030553 0.027406,0.023296 l 0.1253845,0.1240142 0.00137,0.00274 C 6.0395865,3.5091358 6.167359,3.6865108 6.2725679,3.8829511 V 5.074108 5.2436854 5.4416972 c -3.925e-4,0.059289 -0.00103,0.1388192 -0.00103,0.1517632 0,0.1037452 -0.022715,0.1628985 -0.081877,0.2394641 C 6.130477,5.90949 6.0226099,5.9977023 5.8556248,6.0775272 5.5216546,6.2371767 4.9699885,6.3432236 4.343473,6.3454254 H 4.340733 C 3.7123503,6.3432216 3.1611803,6.237177 2.8272103,6.0775272 2.7793855,6.0546651 2.7364152,6.0311068 2.6980512,6.0073275 2.5848954,5.9371894 2.4357915,5.9324904 2.3425845,6.0282652 2.2297487,6.1442094 2.2367962,6.3448617 2.384388,6.4409098 2.8334895,6.7331708 3.5406616,6.8763652 4.339362,6.8791663 h 0.00137 0.00274 c 1.3639788,-0.00478 2.4614433,-0.4202781 2.4614432,-1.2857059 0,-0.019563 6.234e-4,-0.1153741 0.00103,-0.2034929 h -0.00103 V 5.1933261 5.074108 3.7068678 C 6.9332403,3.5453215 7.0547416,3.3672426 7.1478397,3.2173198 7.0055655,2.975119 6.8319497,2.7587277 6.6456162,2.5581943 6.4728026,2.6451802 6.3043291,2.743499 6.1457907,2.8483603 6.0664587,2.7695067 5.9773067,2.704754 5.8895403,2.6373305 5.8033098,2.5680691 5.7059349,2.5176688 5.6137627,2.4585033 5.6412054,2.2541432 5.6548904,2.052175 5.6603537,1.8422004 5.4225335,1.7225099 5.1683411,1.6429502 4.9118146,1.5859499 4.8093954,1.7580838 4.7162396,1.9449979 4.6346667,2.1272276 4.5379375,2.1110642 4.4407815,2.1050903 4.343473,2.1039322 h -0.00137 -0.00137 -0.00137 c -0.097486,0.00116 -0.19444,0.00713 -0.2911945,0.023295 C 3.9666438,1.9449976 3.8735908,1.7580838 3.7710204,1.5859499 Z m 3.0294423,3.6070336 c 0.00116,2.63e-5 0.00255,3.329e-4 0.00377,3.426e-4 h -0.00719 c 0.00123,-1.149e-4 0.00227,-3.69e-4 0.00343,-3.426e-4 z"
     id="path10" /><path
     style="baseline-shift:baseline;display:inline;overflow:visible;vector-effect:none;fill:#414042;stroke-width:0.688466;stroke-linecap:round;stroke-linejoin:round;enable-background:accumulate;stop-color:#000000;fill-opacity:1"
     d="M 3.7136669,1.327998 C 3.4424888,1.3882835 3.1675035,1.4738035 2.9041814,1.6063427 A 0.2646098,0.2646098 0 0 0 2.7589581,1.8483816 C 2.763082,2.0075214 2.7780995,2.1645118 2.7939191,2.321702 2.7386979,2.3551408 2.6913102,2.3802051 2.6285259,2.4306195 2.5937101,2.4573423 2.5506311,2.496863 2.5115405,2.527435 2.3950411,2.4565287 2.279503,2.3835723 2.1565503,2.321702 A 0.2646098,0.2646098 0 0 0 1.8432444,2.3781777 C 1.6480737,2.5882217 1.4617773,2.8189193 1.306725,3.0827797 a 0.2646098,0.2646098 0 0 0 0.00538,0.2770001 C 1.408091,3.5104496 1.5112312,3.6547723 1.6133089,3.7887264 V 4.4489546 H 1.3188269 A 0.2646098,0.2646098 0 0 0 1.1292298,4.8980711 l 0.8283108,0.85117 a 0.2646098,0.2646098 0 0 0 0.3791941,0 l 0.8296555,-0.85117 A 0.2646098,0.2646098 0 0 0 2.976793,4.4489546 H 2.6742445 V 3.9581536 C 2.758221,3.8113461 2.8533994,3.6718115 2.9620018,3.5507215 L 3.0991572,3.4149108 c 0.015336,-0.015239 0.08209,-0.070042 0.1707718,-0.1385 l -0.017481,0.00941 a 0.2646098,0.2646098 0 0 0 0.036306,-0.024204 0.2646098,0.2646098 0 0 0 0.00269,-0.00134 l 0.00134,-0.00134 C 3.276359,3.2721258 3.37466,3.2100828 3.4998617,3.1298494 a 0.2646098,0.2646098 0 0 0 0.00134,-0.00134 l 0.029583,-0.018825 h -0.076644 a 0.2646098,0.2646098 0 0 0 0.1156408,-0.0269 C 3.674047,3.0317311 3.7789047,2.9921946 3.8871281,2.963105 L 4.1789194,2.914698 a 0.2646098,0.2646098 0 0 0 0.00134,0 c -0.030867,0.00516 0.011334,-0.00167 0.048407,-0.00538 0.037119,-0.00365 0.071025,-0.0068 0.1035389,-0.00807 h 0.00941 0.00269 c 0.036468,0.00119 0.073852,0.00431 0.1116068,0.00807 0.032654,0.00342 0.060522,0.00763 0.047063,0.00538 l 0.2837233,0.047063 c 0.1132509,0.030307 0.2231683,0.071088 0.3294418,0.1237088 l 0.065888,0.043029 a 0.2646098,0.2646098 0 0 0 0.00134,0.00134 c 0.1256664,0.080665 0.2233035,0.1432001 0.2057331,0.1290874 a 0.2646098,0.2646098 0 0 0 0.00538,0.00403 0.2646098,0.2646098 0 0 0 0.041685,0.026894 l -0.02017,-0.010757 c 0.027851,0.02136 0.054847,0.041863 0.08068,0.061854 0.024329,0.019695 0.047777,0.04085 0.069922,0.06051 v -0.00134 c 0.00597,0.00535 0.011829,0.00985 0.017481,0.014791 0.00328,0.00287 0.00628,0.00673 0.00941,0.00941 h 0.00134 l 0.083369,0.083369 -0.017481,-0.036306 a 0.2646098,0.2646098 0 0 0 0.041684,0.06051 c 0.1158803,0.1267086 0.2163866,0.2738383 0.3052379,0.4302913 v 1.112034 0.1694273 0.197665 c -3.913e-4,0.058692 -0.00134,0.1305625 -0.00134,0.1519466 0,0.065126 0.013334,0.02767 -0.025548,0.07799 -0.024137,0.031258 -0.100781,0.1018534 -0.2393365,0.1680879 -0.2728143,0.130415 -0.8012412,0.2399402 -1.3984468,0.2420389 h -0.00134 -0.00134 C 3.7418111,6.0790729 3.2144825,5.9696702 2.9418319,5.8393333 2.902179,5.8203779 2.8666276,5.8012539 2.8369484,5.7828576 2.6398271,5.6606748 2.3471015,5.6434216 2.1525163,5.8433673 1.9294308,6.0725985 1.9543604,6.4764328 2.2399192,6.6622654 2.7623309,7.0022345 3.5091581,7.1407438 4.3389339,7.1436539 h 0.00134 0.00269 a 0.2646098,0.2646098 0 0 0 0.00134,0 C 5.0529165,7.1411685 5.7000194,7.037045 6.1999421,6.7980762 6.6998648,6.5591073 7.0699374,6.1378154 7.0699373,5.5932606 c 0,-0.013942 -4.04e-4,-0.1132082 0,-0.2016991 a 0.2646098,0.2646098 0 0 0 0,-0.00134 V 5.1938964 5.0742216 3.7900711 C 7.1815104,3.6429604 7.2901432,3.4896959 7.3724877,3.3570904 a 0.2646098,0.2646098 0 0 0 0.00403,-0.2743107 C 7.2214945,2.8188689 7.0351567,2.5882044 6.8400022,2.3781777 A 0.2646098,0.2646098 0 0 0 6.5266963,2.321702 C 6.4035987,2.3836633 6.2883957,2.4577442 6.171706,2.5287797 6.1322854,2.4978552 6.090059,2.4577107 6.0547205,2.4306195 l -0.00403,-0.00269 C 5.9894503,2.37921 5.9431746,2.3542918 5.8893273,2.321702 5.9051041,2.1646841 5.9201505,2.0087618 5.9242885,1.8497262 A 0.2646098,0.2646098 0 0 0 5.7790651,1.6063427 C 5.5156752,1.4737833 5.240868,1.3882784 4.9695797,1.327998 A 0.2646098,0.2646098 0 0 0 4.6845117,1.4503621 C 4.6077319,1.5794042 4.5447644,1.7154632 4.4801233,1.8497262 4.4359408,1.8470438 4.3896746,1.8394768 4.3470019,1.8389689 a 0.2646098,0.2646098 0 0 0 -0.00403,0 h -0.00134 -0.00134 -0.00134 a 0.2646098,0.2646098 0 0 0 -0.00269,0 c -0.042568,5.069e-4 -0.089131,0.0081 -0.1331248,0.010757 C 4.1384619,1.7153151 4.0757685,1.5796401 3.9987349,1.4503621 A 0.2646098,0.2646098 0 0 0 3.7136669,1.327998 Z m -0.073956,0.5808933 c 0.057395,0.1085299 0.1168581,0.2152572 0.1667379,0.3267524 a 0.2646098,0.2646098 0 0 0 0.2850679,0.1519467 c 0.077608,-0.012965 0.1602382,-0.017646 0.2474175,-0.018826 h 0.00134 0.00269 c 0.087526,0.00114 0.1708246,0.0058 0.2487622,0.018826 A 0.2646098,0.2646098 0 0 0 4.8767981,2.2356437 C 4.9265935,2.1244033 4.9862454,2.0172743 5.0435359,1.9088913 5.1595343,1.941219 5.2723024,1.9792396 5.3810457,2.024532 5.3736935,2.1581845 5.3690418,2.2929916 5.3514632,2.4238961 a 0.2646098,0.2646098 0 0 0 0.1196747,0.2568302 c 0.105978,0.068027 0.193527,0.1150982 0.2527962,0.1627039 a 0.2646098,0.2646098 0 0 0 0.00403,0.00403 c 0.035187,0.027031 0.057606,0.048306 0.088748,0.072612 -0.021514,-0.01663 -0.043231,-0.032077 -0.064544,-0.048407 -0.0091,-0.00697 -0.017751,-0.014492 -0.026893,-0.021515 l 0.022859,0.018826 a 0.2646098,0.2646098 0 0 0 -0.056475,-0.04034 l 0.029583,0.017481 c -0.012948,-0.0104 -0.028293,-0.018215 -0.04034,-0.026893 -2.81e-4,-2.024e-4 -0.00107,2.017e-4 -0.00134,0 -0.050003,-0.035925 -0.1036777,-0.068692 -0.169429,-0.1089154 v 0.142534 A 0.2646098,0.2646098 0 0 0 5.245235,2.5892894 l 0.1183301,0.028238 C 5.2172948,2.5439995 5.0660857,2.4883021 4.9131039,2.4481001 a 0.2646098,0.2646098 0 0 0 -0.067233,-0.00941 h 0.02017 L 4.5903854,2.392969 C 4.5680074,2.389229 4.5511524,2.387929 4.5083614,2.383559 4.4605824,2.378809 4.4099674,2.374399 4.3577594,2.372802 a 0.2646098,0.2646098 0 0 0 -0.00807,0 h -0.00538 -0.00538 a 0.2646098,0.2646098 0 0 0 -0.014791,0 c -0.049066,0.0016 -0.098254,0.00588 -0.1479126,0.010757 -0.046471,0.00465 -0.048633,0.0036 -0.083369,0.00941 l -0.285068,0.047063 h 0.02017 A 0.2646098,0.2646098 0 0 0 3.76073,2.4481001 C 3.6150666,2.486486 3.4738251,2.5398551 3.337162,2.6067699 l 0.1116068,-0.025548 a 0.2646098,0.2646098 0 0 0 -0.1398446,0.041684 l -0.095471,0.061854 v -0.00134 c -0.096087,0.061574 -0.1475805,0.091146 -0.209767,0.1358085 l -0.00538,0.00269 a 0.2646098,0.2646098 0 0 0 -0.012102,0.00941 0.2646098,0.2646098 0 0 0 -0.038995,0.026894 c -5.951e-4,4.563e-4 -7.505e-4,8.881e-4 -0.00134,0.00134 a 0.2646098,0.2646098 0 0 0 -0.00269,0.00134 l -0.00403,0.00403 C 2.8544676,2.9297465 2.7869719,2.9784994 2.7266863,3.038406 l -0.1290874,0.1290873 0.013446,-0.010757 a 0.2646098,0.2646098 0 0 0 -0.038995,0.034961 C 2.4223085,3.3577151 2.2892632,3.5455258 2.1780649,3.7510759 A 0.2646098,0.2646098 0 0 0 2.145793,3.8761293 V 4.7138527 A 0.2646098,0.2646098 0 0 0 2.3797639,4.9478236 L 2.1471377,5.1844838 1.9131668,4.9437896 A 0.2646098,0.2646098 0 0 0 2.1431037,4.7138527 V 3.7067021 A 0.2646098,0.2646098 0 0 0 2.0839386,3.5413089 C 2.0153039,3.4562959 1.9369384,3.336152 1.860725,3.2226244 1.934745,3.1117095 2.0182031,3.0067084 2.1054532,2.9039399 c 0.09623,0.054384 0.1944525,0.1054578 0.285068,0.1653933 A 0.2646098,0.2646098 0 0 0 2.7239969,3.0357167 C 2.7840959,2.9759992 2.8634545,2.9181061 2.9552785,2.8474643 a 0.2646098,0.2646098 0 0 0 0.00403,-0.00403 C 3.0187845,2.7956755 3.106241,2.7485531 3.2121086,2.6807263 A 0.2646098,0.2646098 0 0 0 3.3317834,2.4225515 C 3.3141849,2.2918583 3.3095372,2.1580192 3.3022009,2.024532 3.4111083,1.9791688 3.5235689,1.9412429 3.6397109,1.9088913 Z M 6.5777934,2.9039399 C 6.6648532,3.0065163 6.747325,3.111951 6.8211769,3.2226244 6.7498825,3.3295302 6.6804417,3.4388227 6.5979633,3.5426536 a 0.2646098,0.2646098 0 0 0 -0.05782,0.1640485 v 1.3675195 0.1196748 0.1963204 a 0.2646098,0.2646098 0 0 0 0.00134,0.00134 c -4.011e-4,0.086685 -0.00134,0.1768467 -0.00134,0.2016991 0,0.00401 -0.00666,0.00543 -0.00673,0.00941 6.07e-5,-0.00329 0.00269,-0.00613 0.00269,-0.00941 0,-0.00432 9.501e-4,-0.089651 0.00134,-0.1492573 a 0.2646098,0.2646098 0 0 0 0,-0.00269 V 5.2436489 5.0742216 3.8828526 A 0.2646098,0.2646098 0 0 0 6.5051817,3.7577992 C 6.4010991,3.5634618 6.2717005,3.3929366 6.1340555,3.2347263 l -0.00134,-0.00269 c -0.015144,-0.017372 -0.024872,-0.040907 -0.04034,-0.05782 l 0.030927,0.045718 a 0.2646098,0.2646098 0 0 0 -0.041689,-0.05782 L 5.9565603,3.038406 5.7642739,3.2333817 h -0.00134 c -0.017125,0.010131 -0.2191796,0.1290874 -0.2191796,0.1290874 0,0 -0.00269,-0.00538 -0.00269,-0.00538 0,0 -0.017481,-0.03765 -0.017481,-0.03765 0,0 -0.00941,-0.033616 -0.00941,-0.033616 0,0 0.086058,-0.2595194 0.086058,-0.2595194 0,0 0.2218689,-0.05782 0.2218689,-0.05782 0,0 0.026894,0.00673 0.026894,0.00673 -4.21e-5,-1.77e-5 0.067314,0.032325 0.067233,0.032272 -8.13e-5,-5.33e-5 0.00974,0.00633 0.012102,0.00807 0.018879,0.013886 0.010869,0.00797 0.00941,0.00673 -0.00291,-0.00249 -0.011913,-0.00994 -0.018825,-0.016135 a 0.2646098,0.2646098 0 0 0 0,-0.00134 c -0.019225,-0.017068 -0.043058,-0.036078 -0.065888,-0.055131 0.034922,0.028169 0.078537,0.058533 0.1062282,0.086058 a 0.2646098,0.2646098 0 0 0 0.332131,0.033616 C 6.3821097,3.0093226 6.4814095,2.9583958 6.5777934,2.9039399 Z M 5.7588952,3.2374157 A 0.2646098,0.2646098 0 0 0 5.5840894,3.4135662 c -8.124e-4,-8.055e-4 -0.00245,-9.294e-4 -0.00538,-0.00403 -0.00293,-0.0031 -0.022942,-0.028354 -0.022859,-0.028238 0,0 0.1795727,-0.1271617 0.2030436,-0.1438787 z m 1.0461458,1.8758011 0.00134,0.012102 v 0.00134 l 0.014791,0.3294418 c 0.015262,-0.00143 -0.0052,6.369e-4 -0.017481,0.00134 a 0.2646098,0.2646098 0 0 0 0.00134,-0.332131 0.2646098,0.2646098 0 0 0 0,-0.012102 z M 2.5317105,6.2131489 c -0.00362,0.00372 0.0095,0.00689 0.012102,0.00807 -0.00308,-0.00197 -0.011747,-7.091e-4 -0.014791,-0.00269 -0.00962,-0.00627 1.033e-4,-0.00272 0.00269,-0.00538 z m 3.4490537,0.095471 c -0.00635,0.00311 -0.00294,0.00901 -0.00941,0.012102 C 5.58155,6.5070529 4.9983438,6.6129035 4.3429706,6.6152026 h -0.00269 -0.00134 c -0.058195,-2.198e-4 -0.080189,-0.029056 -0.1371549,-0.030927 0.054749,0.00165 0.08248,0.025352 0.1385,0.025548 h 0.00269 a 0.2646098,0.2646098 0 0 0 0.00134,0 C 5.0001413,6.6075136 5.574884,6.5055718 5.97001,6.3166876 c 0.0049,-0.00234 0.00593,-0.00571 0.010757,-0.00807 z"
     id="path11" /><path
     id="path9"
     style="display:inline;fill:#478cbf;fill-opacity:1;stroke-width:0.0366007"
     d="M 3.5618218,0.38834817 C 3.1893989,0.47114134 2.8204614,0.58670204 2.4750631,0.76055309 2.4829621,1.0655421 2.5027666,1.3589018 2.5427368,1.6557358 2.4086002,1.7416739 2.2674555,1.8148805 2.1421687,1.9154831 2.0148704,2.013416 1.8847329,2.1074695 1.7694661,2.2220048 1.5391884,2.0696932 1.2945532,1.9268848 1.0434675,1.8005374 0.77281721,2.091813 0.52071266,2.4061223 0.3139857,2.7579201 0.47645113,3.0129441 0.65119908,3.2690982 0.81258105,3.4689907 V 4.9314376 H 0 L 1.2036948,6.1669788 2.4073895,4.9314376 H 1.5853541 V 3.7153028 C 1.7318926,3.4444266 1.9088861,3.196777 2.1063415,2.9778593 l 0.00199,-0.00149 L 2.3148356,2.771358 C 2.3739956,2.71257 2.474677,2.6356284 2.6138936,2.5285264 l 0.00597,-0.00547 0.00746,-0.00398 C 2.6733967,2.4820809 2.7856592,2.4184636 2.9602233,2.3065968 l 0.1388305,-0.090066 h 0.00199 C 3.277911,2.1299306 3.4584402,2.0621551 3.6449211,2.0130127 h 0.00149 l 0.4458498,-0.073147 c 0.00281,-4.7e-4 0.035362,-0.00537 0.096037,-0.011445 0.065459,-0.00643 0.129094,-0.010952 0.1900832,-0.012937 0.00266,5.91e-5 0.0048,-6.68e-5 0.00746,0 h 0.00945 0.00746 c 0.065019,0.00199 0.1287993,0.00669 0.191576,0.012937 0.055719,0.0057 0.087845,0.010408 0.094047,0.011445 l 0.4324145,0.071655 h 0.00199 c 0.1978424,0.051991 0.391863,0.1237741 0.5792066,0.2179488 h 0.00199 v 0.00199 l 0.1164385,0.075138 c 0.1750655,0.1123748 0.2873367,0.1758827 0.3328944,0.2124753 l 0.00796,0.00398 0.00547,0.00547 c 0.046991,0.036099 0.092285,0.070626 0.1373376,0.1054912 0.043834,0.035249 0.084985,0.070718 0.1219121,0.1035009 0.023741,0.021286 0.050414,0.044379 0.039808,0.033837 l 0.1821216,0.1801312 0.00199,0.00398 C 6.8568916,3.1817889 7.0424818,3.4394268 7.1952982,3.7247572 V 5.454913 5.701225 5.9888379 c -5.702e-4,0.086117 -0.00149,0.2016355 -0.00149,0.2204368 0,0.1506903 -0.032993,0.2366107 -0.1189265,0.3478226 C 6.9889428,6.6683091 6.8322654,6.7964378 6.5897188,6.9123838 6.1046257,7.1442755 5.3033283,7.298309 4.3933117,7.3015071 h -0.00398 C 3.4766033,7.2983061 2.6760264,7.1442758 2.1909335,6.9123838 2.1214677,6.8791766 2.0590532,6.844958 2.0033293,6.8104184 1.8389701,6.7085426 1.622396,6.7017172 1.4870124,6.8408305 1.3231179,7.00924 1.3333545,7.3006884 1.5477322,7.4401986 2.200054,7.864709 3.2272246,8.0726995 4.3873405,8.0767681 h 0.00199 0.00398 c 1.9811852,-0.00695 3.5752572,-0.6104557 3.5752571,-1.8674934 0,-0.028415 9.055e-4,-0.1675814 0.00149,-0.2955744 h -0.00149 V 5.6280778 5.454913 3.4689907 C 8.1549601,3.234344 8.3314413,2.9756835 8.4666666,2.7579201 8.2600127,2.4061223 8.0078351,2.091813 7.7371848,1.8005374 7.4861723,1.9268848 7.2414638,2.0696932 7.0111861,2.2220048 6.895956,2.1074695 6.7664623,2.013416 6.6389813,1.9154831 6.5137311,1.8148805 6.3722936,1.7416739 6.2384131,1.6557358 6.2782737,1.3589018 6.2981512,1.0655421 6.3060867,0.76055309 5.9606519,0.58670204 5.5914362,0.47114134 5.2188304,0.38834817 5.070066,0.63837333 4.9347569,0.90986694 4.8162719,1.1745564 4.6757722,1.1510789 4.5346527,1.1424018 4.3933117,1.1407196 h -0.00199 -0.00199 -0.00199 C 4.245743,1.1424057 4.1049167,1.1510785 3.9643804,1.1745564 3.8459657,0.90986645 3.7108057,0.63837333 3.5618218,0.38834817 Z M 7.9621,5.6275802 c 0.00168,3.83e-5 0.00371,4.835e-4 0.00547,4.976e-4 H 7.95712 C 7.95891,5.627911 7.96042,5.6275419 7.9621,5.6275802 Z"
     inkscape:path-effect="#path-effect1"
     inkscape:original-d="M 3.5618218,0.38834817 C 3.1893989,0.47114134 2.8204614,0.58670204 2.4750631,0.76055309 2.4829621,1.0655421 2.5027666,1.3589018 2.5427368,1.6557358 2.4086002,1.7416739 2.2674555,1.8148805 2.1421687,1.9154831 2.0148704,2.013416 1.8847329,2.1074695 1.7694661,2.2220048 1.5391884,2.0696932 1.2945532,1.9268848 1.0434675,1.8005374 0.77281721,2.091813 0.52071266,2.4061223 0.3139857,2.7579201 0.47645113,3.0129441 0.65119908,3.2690982 0.81258105,3.4689907 V 4.9314376 H 0 L 1.2036948,6.1669788 2.4073895,4.9314376 H 1.5853541 V 3.7153028 C 1.7318926,3.4444266 1.9088861,3.196777 2.1063415,2.9778593 l 0.00199,-0.00149 L 2.3148356,2.771358 C 2.3739956,2.71257 2.474677,2.6356284 2.6138936,2.5285264 l 0.00597,-0.00547 0.00746,-0.00398 C 2.6733967,2.4820809 2.7856592,2.4184636 2.9602233,2.3065968 l 0.1388305,-0.090066 h 0.00199 C 3.277911,2.1299306 3.4584402,2.0621551 3.6449211,2.0130127 h 0.00149 l 0.4458498,-0.073147 c 0.00281,-4.7e-4 0.035362,-0.00537 0.096037,-0.011445 0.065459,-0.00643 0.129094,-0.010952 0.1900832,-0.012937 0.00266,5.91e-5 0.0048,-6.68e-5 0.00746,0 h 0.00945 0.00746 c 0.065019,0.00199 0.1287993,0.00669 0.191576,0.012937 0.055719,0.0057 0.087845,0.010408 0.094047,0.011445 l 0.4324145,0.071655 h 0.00199 c 0.1978424,0.051991 0.391863,0.1237741 0.5792066,0.2179488 h 0.00199 v 0.00199 l 0.1164385,0.075138 c 0.1750655,0.1123748 0.2873367,0.1758827 0.3328944,0.2124753 l 0.00796,0.00398 0.00547,0.00547 c 0.046991,0.036099 0.092285,0.070626 0.1373376,0.1054912 0.043834,0.035249 0.084985,0.070718 0.1219121,0.1035009 0.023741,0.021286 0.050414,0.044379 0.039808,0.033837 l 0.1821216,0.1801312 0.00199,0.00398 C 6.8568916,3.1817889 7.0424818,3.4394268 7.1952982,3.7247572 V 5.454913 5.701225 5.9888379 c -5.702e-4,0.086117 -0.00149,0.2016355 -0.00149,0.2204368 0,0.1506903 -0.032993,0.2366107 -0.1189265,0.3478226 C 6.9889428,6.6683091 6.8322654,6.7964378 6.5897188,6.9123838 6.1046257,7.1442755 5.3033283,7.298309 4.3933117,7.3015071 h -0.00398 C 3.4766033,7.2983061 2.6760264,7.1442758 2.1909335,6.9123838 1.9713338,6.8074072 1.8222011,6.6923221 1.7321461,6.5889437 L 1.1902596,7.1457583 c 0.5865236,0.6231732 1.7946629,0.9260914 3.1970809,0.9310098 h 0.00199 0.00398 c 1.9811852,-0.00695 3.5752572,-0.6104557 3.5752571,-1.8674934 0,-0.028415 9.055e-4,-0.1675814 0.00149,-0.2955744 h -0.00149 V 5.6280778 5.454913 3.4689907 C 8.1549601,3.234344 8.3314413,2.9756835 8.4666666,2.7579201 8.2600127,2.4061223 8.0078351,2.091813 7.7371848,1.8005374 7.4861723,1.9268848 7.2414638,2.0696932 7.0111861,2.2220048 6.895956,2.1074695 6.7664623,2.013416 6.6389813,1.9154831 6.5137311,1.8148805 6.3722936,1.7416739 6.2384131,1.6557358 6.2782737,1.3589018 6.2981512,1.0655421 6.3060867,0.76055309 5.9606519,0.58670204 5.5914362,0.47114134 5.2188304,0.38834817 5.070066,0.63837333 4.9347569,0.90986694 4.8162719,1.1745564 4.6757722,1.1510789 4.5346527,1.1424018 4.3933117,1.1407196 h -0.00199 -0.00199 -0.00199 C 4.245743,1.1424057 4.1049167,1.1510785 3.9643804,1.1745564 3.8459657,0.90986645 3.7108057,0.63837333 3.5618218,0.38834817 Z M 7.9621,5.6275802 c 0.00168,3.83e-5 0.00371,4.835e-4 0.00547,4.976e-4 H 7.95712 C 7.95891,5.627911 7.96042,5.6275419 7.9621,5.6275802 Z"
     transform="matrix(0.68846608,0,0,0.68846608,1.3188269,1.3185854)" /><g
     id="g3"
     transform="matrix(0.74407066,0,0,0.74417297,1.2506303,1.0886504)"
     style="display:inline"><path
       d="M 1.8053276,3.982252 C 1.8043159,4.3880634 1.4746921,4.7159806 1.0690153,4.7149692 0.66354061,4.7139582 0.3354549,4.3844013 0.33646665,3.9785899 0.33747772,3.5730478 0.66720219,3.2452993 1.0726769,3.2463102 1.4783536,3.2473217 1.8063387,3.5767099 1.8053276,3.982252"
       fill="#ffffff"
       id="path4"
       style="display:inline;stroke-width:0.0336718" /><path
       d="M 1.6284888,4.0253771 C 1.6278177,4.2945488 1.4091148,4.5121638 1.1397412,4.5114922 0.8705022,4.510821 0.65275239,4.2921178 0.65342348,4.0229461 0.65409456,3.7537745 0.87293268,3.5359577 1.1421716,3.536629 1.4115453,3.5373005 1.6291599,3.7562055 1.6284888,4.0253771"
       fill="#414042"
       id="path5"
       style="display:inline;stroke-width:0.0336718" /></g><g
     id="g2"
     transform="matrix(0.74254316,0,0,0.74254316,1.190918,1.0875443)"
     style="display:inline"><path
       d="M 2.3800911,3.9872045 C 2.3790793,4.3930159 2.7070639,4.7225726 3.1128081,4.7235842 3.5182491,4.724595 3.8479403,4.396678 3.848952,3.9908665 3.8499631,3.5853245 3.5219107,3.2559361 3.1164697,3.2549252 2.7107255,3.2539137 2.3811021,3.5816624 2.3800911,3.9872045"
       fill="#ffffff"
       id="path7"
       style="display:inline;stroke-width:0.0336718" /><path
       d="M 2.5567573,4.031211 C 2.5560862,4.3003826 2.773634,4.5190853 3.0428056,4.5197564 3.3122467,4.5204281 3.5308822,4.3028129 3.5315533,4.0336413 3.5322244,3.7644696 3.3146771,3.5455649 3.0452361,3.5448931 2.7760644,3.544222 2.5574284,3.7620393 2.5567573,4.031211"
       fill="#414042"
       id="path8"
       style="display:inline;stroke-width:0.0336718" /></g></svg>
