<?xml version="1.0" encoding="UTF-8" standalone="no"?>
<!-- Created with Inkscape (http://www.inkscape.org/) -->

<svg
   width="32"
   height="32"
   viewBox="0 0 8.4666666 8.4666666"
   version="1.1"
   id="svg1"
   xml:space="preserve"
   sodipodi:docname="icon.svg"
   inkscape:version="1.4.2 (ebf0e940d0, 2025-05-08)"
   xmlns:inkscape="http://www.inkscape.org/namespaces/inkscape"
   xmlns:sodipodi="http://sodipodi.sourceforge.net/DTD/sodipodi-0.dtd"
   xmlns="http://www.w3.org/2000/svg"
   xmlns:svg="http://www.w3.org/2000/svg"><sodipodi:namedview
     id="namedview1"
     pagecolor="#505050"
     bordercolor="#ffffff"
     borderopacity="1"
     inkscape:showpageshadow="false"
     inkscape:pageopacity="0"
     inkscape:pagecheckerboard="true"
     inkscape:deskcolor="#505050"
     inkscape:document-units="px"
     showgrid="true"
     labelstyle="default"
     inkscape:zoom="29.676248"
     inkscape:cx="13.748369"
     inkscape:cy="18.836613"
     inkscape:window-width="2560"
     inkscape:window-height="1404"
     inkscape:window-x="0"
     inkscape:window-y="0"
     inkscape:window-maximized="1"
     inkscape:current-layer="svg1"><inkscape:grid
       id="grid9"
       units="px"
       originx="0"
       originy="0"
       spacingx="0.26458333"
       spacingy="0.26458333"
       empcolor="#0099e5"
       empopacity="0.30196078"
       color="#0099e5"
       opacity="0.14901961"
       empspacing="8"
       enabled="true"
       visible="true"
       dotted="false" /></sodipodi:namedview><defs
     id="defs1"><inkscape:path-effect
       effect="mirror_symmetry"
       start_point="0.92253625,4.2693926"
       end_point="0.92253625,5.7180052"
       center_point="0.92253625,4.9936989"
       id="path-effect28"
       is_visible="true"
       lpeversion="1.2"
       lpesatellites=""
       mode="free"
       discard_orig_path="false"
       fuse_paths="true"
       oposite_fuse="true"
       split_items="false"
       split_open="false"
       link_styles="false" /><inkscape:path-effect
       effect="fillet_chamfer"
       id="path-effect27"
       is_visible="true"
       lpeversion="1"
       nodesatellites_param="F,0,0,1,0,0,0,1 @ F,0,0,1,0,0,0,1 @ F,0,0,1,0,0,0,1 @ F,0,0,1,0,0,0,1 @ F,0,0,1,0,0,0,1 @ F,0,0,1,0,0,0,1 @ F,0,0,1,0,0,0,1 @ F,0,0,1,0,0,0,1 @ F,0,0,1,0,0,0,1 @ F,0,0,1,0,0,0,1 @ F,0,0,1,0,0,0,1 @ F,0,0,1,0,0,0,1 @ F,0,0,1,0,0,0,1 @ F,0,0,1,0,0,0,1"
       radius="0"
       unit="px"
       method="arc"
       mode="F"
       chamfer_steps="1"
       flexible="false"
       use_knot_distance="true"
       apply_no_radius="true"
       apply_with_radius="true"
       only_selected="true"
       hide_knots="false" /><inkscape:path-effect
       effect="fillet_chamfer"
       id="path-effect26"
       is_visible="true"
       lpeversion="1"
       nodesatellites_param="F,0,0,1,0,0.52916666,0,1 @ F,0,0,1,0,0,0,1 @ F,0,0,1,0,0,0,1"
       radius="2"
       unit="px"
       method="auto"
       mode="F"
       chamfer_steps="1"
       flexible="false"
       use_knot_distance="true"
       apply_no_radius="true"
       apply_with_radius="true"
       only_selected="false"
       hide_knots="false" /><inkscape:path-effect
       effect="join_type"
       id="path-effect24"
       is_visible="true"
       lpeversion="1"
       linecap_type="butt"
       line_width="0.0272521"
       linejoin_type="extrp_arc"
       miter_limit="100"
       attempt_force_join="true" /><inkscape:path-effect
       effect="bool_op"
       operand-path="#path19"
       id="path-effect23"
       is_visible="true"
       lpeversion="1"
       operation="diff"
       swap-operands="false"
       filltype-this="from-curve"
       filter=""
       filltype-operand="from-curve" /><inkscape:path-effect
       effect="offset"
       id="path-effect22"
       is_visible="true"
       lpeversion="1.3"
       linejoin_type="miter"
       unit="px"
       offset="-3"
       miter_limit="4"
       attempt_force_join="false"
       update_on_knot_move="true" /><inkscape:path-effect
       effect="bool_op"
       operand-path=""
       id="path-effect21"
       is_visible="true"
       lpeversion="1"
       operation="diff"
       swap-operands="false"
       filltype-this="from-curve"
       filter=""
       filltype-operand="from-curve" /><inkscape:path-effect
       effect="bool_op"
       operand-path="#path11-9"
       id="path-effect14"
       is_visible="true"
       lpeversion="1"
       operation="diff"
       swap-operands="false"
       filltype-this="from-curve"
       filter=""
       filltype-operand="from-curve" /><inkscape:path-effect
       effect="bool_op"
       operand-path="#path11"
       id="path-effect13"
       is_visible="true"
       lpeversion="1"
       operation="union"
       swap-operands="false"
       filltype-this="from-curve"
       filter=""
       filltype-operand="from-curve" /><inkscape:path-effect
       effect="bool_op"
       operand-path=""
       id="path-effect12"
       is_visible="true"
       lpeversion="1"
       operation="diff"
       swap-operands="false"
       filltype-this="from-curve"
       filter=""
       filltype-operand="from-curve" /><filter
       id="selectable_hidder_filter"
       width="1"
       height="1"
       x="0"
       y="0"
       style="color-interpolation-filters:sRGB;"
       inkscape:label="LPE boolean visibility"><feComposite
         id="boolops_hidder_primitive"
         result="composite1"
         operator="arithmetic"
         in2="SourceGraphic"
         in="BackgroundImage" /></filter><inkscape:path-effect
       effect="bool_op"
       operand-path="#path2"
       id="path-effect11"
       is_visible="true"
       lpeversion="1"
       operation="diff"
       swap-operands="true"
       filltype-this="from-curve"
       filter=""
       filltype-operand="from-curve" /><inkscape:path-effect
       effect="offset"
       id="path-effect10"
       is_visible="true"
       lpeversion="1.3"
       linejoin_type="miter"
       unit="px"
       offset="-3"
       miter_limit="4"
       attempt_force_join="false"
       update_on_knot_move="true" /><inkscape:path-effect
       effect="offset"
       id="path-effect9"
       is_visible="true"
       lpeversion="1.3"
       linejoin_type="miter"
       unit="px"
       offset="0"
       miter_limit="4"
       attempt_force_join="false"
       update_on_knot_move="true" /><inkscape:path-effect
       effect="powerstroke"
       message=""
       id="path-effect16"
       is_visible="true"
       lpeversion="1.3"
       scale_width="7.2555205"
       interpolator_type="CentripetalCatmullRom"
       interpolator_beta="0.2"
       start_linecap_type="zerowidth"
       end_linecap_type="zerowidth"
       offset_points="3.5,0"
       linejoin_type="round"
       miter_limit="4"
       not_jump="false"
       sort_points="true" /><inkscape:path-effect
       effect="fillet_chamfer"
       id="path-effect15"
       is_visible="true"
       lpeversion="1"
       nodesatellites_param="F,0,0,1,0,0.26458333,0,1 @ F,0,0,1,0,0.26458333,0,1 @ F,0,0,1,0,0.26458333,0,1 @ F,0,0,1,0,0.26458333,0,1 @ F,0,0,1,0,0.26458333,0,1 @ F,0,0,1,0,0.26458333,0,1 @ F,0,0,1,0,0.26458333,0,1"
       radius="1"
       unit="px"
       method="auto"
       mode="F"
       chamfer_steps="1"
       flexible="true"
       use_knot_distance="true"
       apply_no_radius="true"
       apply_with_radius="true"
       only_selected="false"
       hide_knots="false" /><inkscape:path-effect
       effect="fill_between_many"
       method="bsplinespiro"
       autoreverse="false"
       close="false"
       join="false"
       linkedpaths="#path9,0,1"
       id="path-effect17" /><inkscape:path-effect
       effect="fill_between_many"
       method="bsplinespiro"
       autoreverse="false"
       close="false"
       join="false"
       linkedpaths="#path11,0,1"
       id="path-effect25" /></defs><path
     d="m 7.9488173,5.6813777 c 0,0 -0.012343,-0.075728 -0.019559,-0.075044 L 6.5551449,5.7389141 C 6.4458067,5.7494719 6.3608883,5.836669 6.3532168,5.9462351 L 6.3154668,6.4873052 5.2523914,6.563147 5.1800816,6.0727772 C 5.163979,5.9637049 5.0687306,5.8814829 4.9584809,5.8814829 H 3.5081836 c -0.1102117,0 -0.2054601,0.082222 -0.2215627,0.1912943 L 3.2142731,6.563147 2.1511977,6.4873052 2.1134478,5.9462351 C 2.1057762,5.8366311 2.0208578,5.749434 1.9115196,5.7388761 L 0.5367222,5.6063335 c -0.007102,-6.836e-4 -0.0123048,0.07512 -0.0194067,0.07512 l -0.001861,0.2973664 1.1643243,0.1877624 0.03813,0.5458933 c 0.00771,0.1105155 0.096881,0.1998773 0.2074729,0.2078147 l 1.4640833,0.104439 c 0.00554,3.798e-4 0.011013,6.076e-4 0.016482,6.076e-4 0.1100217,0 0.2051182,-0.08226 0.2212208,-0.1913323 l 0.074399,-0.5045734 h 1.0635691 l 0.074399,0.5045734 c 0.016065,0.1090344 0.111275,0.1912944 0.2214487,0.1912944 0.00539,0 0.010786,-1.899e-4 0.016065,-5.697e-4 L 6.5413209,6.9202905 C 6.6518744,6.9123531 6.7410843,6.8229913 6.7487938,6.7124758 L 6.7868856,6.1665825 7.9507162,5.9779846 Z"
     fill="#ffffff"
     id="path1"
     style="display:none;stroke-width:0.0379778" /><path
     d="m 0.51729749,3.439127 v 1.8044786 0.2291962 0.2085743 c 0.004102,3.79e-5 0.008203,1.899e-4 0.0122668,5.696e-4 L 1.9042099,5.8144884 c 0.072006,0.00695 0.128441,0.064904 0.1334541,0.1370619 L 2.080047,6.5583601 3.279159,6.6439241 3.361761,6.083865 C 3.372471,6.011251 3.434754,5.9574368 3.5082035,5.9574368 h 1.4502974 c 0.073411,0 0.1356948,0.053815 0.1464045,0.1264282 l 0.082602,0.5600591 1.19915,-0.085564 0.042345,-0.6068098 c 0.00505,-0.072158 0.061448,-0.130074 0.1334541,-0.1370619 L 7.9365704,5.6819457 c 0.00406,-3.797e-4 0.00813,-5.317e-4 0.012229,-5.696e-4 V 5.5024625 L 7.949369,5.5022726 V 3.439127 C 8.1429389,3.1954433 8.3262317,2.9266463 8.466665,2.7004962 8.2520522,2.3351495 7.9890937,2.0086541 7.7080198,1.7061606 7.44734,1.837374 7.1941418,1.9860193 6.9549954,2.1441969 6.8353273,2.0252504 6.7005439,1.9279512 6.5681532,1.8262465 6.4380792,1.7217695 6.2914847,1.6451682 6.1524479,1.5559203 6.1938437,1.2476543 6.2143138,0.94417346 6.222555,0.62743836 5.8638164,0.44689175 5.4812657,0.32718563 5.0943096,0.24120382 4.9398158,0.50085825 4.7985383,0.7820461 4.6754901,1.0569296 4.5295793,1.0325479 4.3829849,1.0235091 4.2362005,1.0217622 v -2.279e-4 c -0.00103,0 -0.00197,2.279e-4 -0.00285,2.279e-4 -9.115e-4,0 -0.00186,-2.279e-4 -0.00277,-2.279e-4 v 2.279e-4 C 4.0835297,1.0235091 3.9370492,1.0325479 3.7911004,1.0569296 3.6681282,0.7820461 3.5269266,0.50085825 3.3722049,0.24120382 2.9854387,0.32718563 2.60285,0.44689175 2.2441494,0.62743836 2.2523526,0.94417346 2.2728227,1.2476543 2.3143324,1.5559203 2.1750298,1.6451682 2.0286252,1.7217695 1.8985132,1.8262465 1.7663124,1.9279512 1.6313012,2.0252504 1.5115951,2.1441969 1.2724487,1.9860193 1.0193264,1.837374 0.75857064,1.7061606 0.47749672,2.0086541 0.21469014,2.3351495 1.46757e-6,2.7004962 0.16872397,2.9653419 0.34970019,3.2315359 0.51729749,3.439127 Z"
     fill="#478cbf"
     id="path2"
     style="display:inline;stroke-width:0.0379778;filter:url(#selectable_hidder_filter)" /><path
     id="path9"
     style="display:inline;fill:#478cbf;fill-opacity:1;stroke-width:0.0379778"
     d="M 3.3741238,0.24751357 C 2.9877788,0.33344208 2.6047569,0.45355792 2.2464469,0.63399262 2.2546412,0.95053141 2.2752184,1.255029 2.3166828,1.5631039 2.1775319,1.6522965 2.0310906,1.7280558 1.9011203,1.8324681 1.7690634,1.9341097 1.6343984,2.0317574 1.5148227,2.1506301 1.2759367,1.9925506 1.0222092,1.8445334 0.76173742,1.7134013 0.4809696,2.0157073 0.21920507,2.3418055 0.00475019,2.7069257 0.17328895,2.9716073 0.35434988,3.237287 0.52176467,3.4447494 v 1.8035689 0.228374 0.2088548 c 0.004098,3.79e-5 0.007647,-3.794e-4 0.011706,0 L 1.3236249,5.7616718 V 5.4766923 5.2483183 3.7004502 C 1.4756413,3.419316 1.6592146,3.1625077 1.8640513,2.9352997 l 0.00195,-0.00195 0.2146098,-0.2127587 C 2.1419821,2.65958 2.2464,2.5799501 2.3908208,2.4687922 l 0.00585,-0.00586 0.0078,-0.0039 c 0.04779,-0.038392 0.1642369,-0.1044632 0.3453266,-0.2205663 l 0.1443739,-0.093692 h 0.00195 C 3.0795998,2.0548938 3.2665157,1.984971 3.4599677,1.9339676 h 0.00195 L 3.9243052,1.857843 c 0.00292,-4.878e-4 0.036558,-0.00541 0.099501,-0.011711 0.067906,-0.00667 0.1337816,-0.011602 0.1970508,-0.013663 0.00276,6.14e-5 0.00504,-6.93e-5 0.0078,0 h 0.00975 0.0078 c 0.06745,0.00207 0.1338783,0.00718 0.1990018,0.013663 0.057802,0.00592 0.091117,0.010635 0.09755,0.011711 l 0.4487295,0.074173 h 0.00195 c 0.2052381,0.05396 0.4065605,0.1286811 0.6009074,0.2264221 h 0.00195 v 0.00195 l 0.1209619,0.078077 c 0.1816099,0.1166304 0.2980658,0.182588 0.3453266,0.2205663 l 0.0078,0.0039 0.00585,0.00586 c 0.048748,0.037466 0.095686,0.073122 0.1424229,0.1093072 0.045473,0.036584 0.088507,0.073331 0.1268149,0.1073553 0.024629,0.022092 0.051973,0.046075 0.040971,0.035134 l 0.1892468,0.1873838 0.00195,0.0039 C 6.7923397,3.1467639 6.984923,3.4140741 7.143452,3.7102098 V 5.505971 5.7616718 l 0.7901542,-0.076125 c 0.00406,-3.794e-4 0.00761,3.79e-5 0.011706,0 V 5.505971 3.4447494 C 8.1386712,3.2012167 8.3220463,2.9329357 8.4623266,2.7069257 8.2479475,2.3418055 7.9861072,2.0157073 7.7053394,1.7134013 7.4449435,1.8445334 7.1911401,1.9925506 6.9522541,2.1506301 6.8327164,2.0317574 6.6982031,1.9341097 6.5659565,1.8324681 6.4360242,1.7280558 6.2892793,1.6522965 6.150394,1.5631039 6.1917447,1.255029 6.2123977,0.95053141 6.2206299,0.63399262 5.862282,0.45355792 5.4794877,0.33344208 5.092953,0.24751357 4.9386275,0.50700706 4.7983537,0.78870067 4.6754395,1.0634138 4.5296876,1.0390472 4.3830895,1.0300252 4.2364649,1.0282793 c 0,0 -0.00195,0 -0.00195,0 0,0 -0.00195,0 -0.00195,0 0,0 -0.00195,0 -0.00195,0 -0.1468907,0.00175 -0.2931847,0.010768 -0.4389745,0.035135 C 3.6687991,0.78870067 3.528677,0.50700706 3.3741238,0.24751357 Z"
     transform="matrix(1.0010902,0,0,1.0006202,-0.00475537,-0.0074327)"
     sodipodi:nodetypes="cccccccccccccccccccccccccccccccc"
     inkscape:original-d="m 4.2288275,1.0284379 c -0.094607,0.0021 -0.1886089,0.0083 -0.2828784,0.017559 -0.051162,0.00512 -0.1033138,0.00903 -0.1543443,0.017559 -0.00132,-0.00296 -0.00228,-0.00478 -0.00361,-0.00775 -0.5137111,0.060946 -1.012682,0.2255127 -1.4732392,0.4895889 6.965e-4,0.00527 0.00136,0.012292 0.00206,0.017559 C 2.177679,1.6521593 2.031245,1.728129 1.9012747,1.8325413 1.7692179,1.9341829 1.6342155,2.031798 1.5146397,2.1506708 l -5.162e-4,-5.165e-4 -5.162e-4,-5.164e-4 c -6.329e-4,-6.68e-4 -0.00143,-0.00192 -0.00206,-0.00258 l -5.21e-4,-5.187e-4 C 1.1098138,2.52681 0.77410975,2.9889243 0.52198415,3.5073692 V 5.248302 5.4765703 l -5.162e-4,6.5077107 H 7.9454787 V 5.5060076 3.518731 C 7.6932795,2.9966635 7.357493,2.5313124 6.9543717,2.148605 l -0.00206,0.00207 C 6.9300558,2.1285434 6.9052882,2.1089772 6.8821035,2.0881811 6.8262304,2.0385386 6.7682257,1.9899776 6.7102084,1.9435767 6.6618414,1.9061294 6.6147773,1.8698858 6.5661882,1.8325413 6.4362558,1.728129 6.2895313,1.6521501 6.1506459,1.5629575 c 5.729e-4,-0.00427 9.843e-4,-0.00916 0.00155,-0.013428 C 5.6919531,1.284625 5.1931549,1.1176337 4.6794729,1.0558091 c -0.00124,0.00275 -0.0029,0.005 -0.00413,0.00775 -0.049048,-0.00821 -0.098964,-0.012525 -0.1481499,-0.017559 -0.09598,-0.00956 -0.1922221,-0.015417 -0.2885566,-0.017559 -0.00258,-2.7e-6 -0.00568,-2.7e-6 -0.00826,0 z"
     inkscape:path-effect="#path-effect10;#path-effect11;#path-effect12" /><path
     d="m 7.9511719,5.9785156 -0.8046875,0.078125 c -5.921e-4,0.089434 -0.00195,0.2089899 -0.00195,0.2285156 0,0.1564938 -0.033804,0.2458332 -0.1230468,0.3613282 C 6.9322418,6.7619794 6.7694659,6.8952136 6.5175781,7.015625 6.0138025,7.2564477 5.1813922,7.4166006 4.2363281,7.4199219 h -0.00391 C 3.2845384,7.4165976 2.4529941,7.256448 1.9492187,7.015625 1.7211616,6.9066054 1.5661795,6.7870473 1.4726562,6.6796875 L 0.91015625,7.2578125 C 1.5192688,7.9049862 2.7740391,8.2195015 4.2304687,8.2246094 h 0.00195 0.00391 c 2.0574869,-0.00722 3.7128907,-0.6340031 3.7128906,-1.9394532 0,-0.029509 0.00134,-0.1737182 0.00195,-0.3066406 z"
     fill="#478cbf"
     id="path3"
     style="display:inline;stroke-width:0.0379778"
     sodipodi:nodetypes="ccccscccccccccscccscc"
     inkscape:original-d="m 6.7155934,6.0971473 -0.042573,0.6100379 c -0.00513,0.073525 -0.063613,0.1320489 -0.137138,0.1373278 L 5.0716471,6.94899 c -0.00357,2.659e-4 -0.00714,3.798e-4 -0.010672,3.798e-4 -0.072766,0 -0.1355429,-0.053397 -0.1462906,-0.1264662 L 4.8307157,6.253464 H 3.6359712 L 3.5520022,6.8229036 C 3.5407228,6.8995429 3.4722108,6.9546487 3.3950398,6.94899 L 1.9308046,6.844513 C 1.8572795,6.8392341 1.7987936,6.7807103 1.7936666,6.7071852 L 1.7510935,6.0971473 0.51502905,5.9779729 c 5.6967e-4,0.1328464 0.002279,0.2783775 0.002279,0.3073545 0,1.30545 1.65602325,1.9329197 3.71351015,1.9401355 h 0.00251 0.00254 c 2.0574869,-0.00722 3.7129405,-0.6346855 3.7129405,-1.9401355 0,-0.029509 0.00178,-0.1744321 0.00239,-0.3073545 z"
     inkscape:path-effect="#path-effect14;#path-effect23;#path-effect27" /><path
     style="display:inline;fill:#478cbf;fill-opacity:1;stroke:none;stroke-width:0.0272521;stroke-dasharray:none;filter:url(#selectable_hidder_filter)"
     d="M 0.62987766,7.544058 1.47875,6.6726376 3.3761057,5.9890575 0.00609374,5.5491998 Z"
     id="path11-9"
     sodipodi:nodetypes="ccccc"
     transform="translate(-0.00609374,0.00704989)" /><path
     style="display:inline;fill:#478cbf;fill-opacity:1;fill-rule:nonzero;stroke:none;stroke-width:0.0272521;stroke-dasharray:none"
     d="m -0.328125,4.2324219 1.25,1.2832031 1.25,-1.2832031 h -1.25 z"
     id="path11"
     sodipodi:nodetypes="cccc"
     transform="translate(0.00226844,0.72602764)"
     inkscape:linked-fill="path25"
     inkscape:original-d="M 0.7613766,5.6819459 2.1723378,4.2333333 H 0.76097895 Z"
     inkscape:path-effect="#path-effect28" /><rect
     style="fill:#478cbf;fill-opacity:1;stroke:none;stroke-width:0.0272058;stroke-dasharray:none"
     id="rect14"
     width="0.80273396"
     height="0.57370734"
     x="7.1464844"
     y="5.6816406" /><rect
     style="display:none;fill:#478cbf;fill-opacity:1;stroke:none;stroke-width:0.0272058;stroke-dasharray:none"
     id="rect14-3"
     width="0.90327126"
     height="0.53878754"
     x="-5.6961923"
     y="-3.0948474"
     transform="rotate(-128.03411)"
     ry="0"
     inkscape:transform-center-x="-0.06695312"
     inkscape:transform-center-y="0.52277713" /><path
     id="path19"
     style="display:inline;stroke-width:0.0379778;filter:url(#selectable_hidder_filter)"
     d="M 3.1230469,1.53125 3.1796875,1.9570312 2.7480469,2.234375 C 2.5671413,2.3502769 2.4506317,2.4143509 2.4023438,2.453125 l -0.00781,0.00586 -0.00586,0.00391 C 2.2443519,2.5739188 2.1399164,2.6534445 2.078125,2.7148438 L 1.6132812,3.1757813 1.0683594,2.8144531 c -0.011644,-0.0077 -0.023429,-0.015788 -0.035156,-0.023437 0.038388,0.051972 0.074892,0.099866 0.109375,0.1425782 L 1.3222656,3.15625 v 2.0878906 0.2285156 0.2089844 l -0.00195,0.3027344 c 2.909e-4,0.055953 0.00195,0.2735598 0.00195,0.3007812 0,0.1564938 0.033804,0.2458328 0.1230469,0.3613282 0.089243,0.1154954 0.2520186,0.2487291 0.5039062,0.3691406 0.5037754,0.240823 1.3353197,0.4009726 2.2832032,0.4042969 h 0.00391 C 5.1813922,7.4166006 6.0138025,7.2564477 6.5175781,7.015625 6.7694659,6.8952136 6.9322418,6.7619794 7.0214844,6.6464844 7.110727,6.5309894 7.1445312,6.44165 7.1445312,6.2851562 c 0,-0.026949 0.00165,-0.2454589 0.00195,-0.3105468 L 7.1445312,5.6875 v -0.1855469 -2.34375 l 0.1757813,-0.21875 c 0.037811,-0.0476 0.075841,-0.096199 0.1132812,-0.1464843 -0.011547,0.00753 -0.02369,0.0139 -0.035156,0.021484 L 6.8535156,3.1757813 6.3886719,2.7148438 C 6.3267362,2.6532816 6.2221011,2.5734954 6.078125,2.4628906 l -0.00586,-0.00391 -0.00781,-0.00586 C 6.0167425,2.4148033 5.9002601,2.3489334 5.71875,2.2324219 L 5.2871094,1.9570312 5.34375,1.53125 5.15625,1.9511719 4.5429687,1.8496094 C 4.4533696,1.8346374 4.3498247,1.8278005 4.2324219,1.8261719 h -0.00195 c -0.1109529,0.00137 -0.2150793,0.00814 -0.3066406,0.023437 L 3.3105469,1.9511719 Z"
     inkscape:original-d="M 3.3724039,0.24132894 C 2.9856377,0.32731075 2.603008,0.44680527 2.2443074,0.62735188 c 0.0082,0.3167351 0.02877,0.62035952 0.07028,0.92862552 C 2.1752848,1.6452253 2.0287041,1.7217681 1.8985921,1.8262451 1.7663913,1.9279498 1.6312417,2.0251087 1.5115356,2.1440552 1.2723892,1.9858776 1.0193658,1.8375692 0.75861002,1.7063558 0.4775361,2.0088493 0.21468867,2.3352636 0,2.7006103 0.1687225,2.965456 0.34968378,3.2314754 0.51728108,3.4390665 v 1.804541 0.2294434 0.208256 l -0.002067,0.2966227 v 5.168e-4 5.168e-4 c 5.7535e-4,0.1324834 0.002067,0.2775616 0.002067,0.3064412 0,1.30545 1.65598152,1.9327175 3.71346842,1.9399333 h 0.00258 0.00258 c 2.0574869,-0.00722 3.7129517,-0.6344833 3.7129517,-1.9399333 0,-0.029509 0.00197,-0.1745524 0.00258,-0.3074748 H 7.9509358 L 7.9488688,5.6813069 V 5.5025065 h 5.167e-4 v -2.06344 C 8.1429554,3.1953828 8.3262333,2.9267604 8.4666666,2.7006103 8.2520538,2.3352636 7.9891305,2.0088493 7.7080566,1.7063558 7.4473768,1.8375692 7.1942774,1.9858776 6.955131,2.1440552 6.8354629,2.0251087 6.7004652,1.9279498 6.5680745,1.8262451 6.4380005,1.7217681 6.2916328,1.6452253 6.152596,1.5559774 6.1939918,1.2477114 6.214118,0.94408698 6.2223592,0.62735188 5.8636206,0.44680527 5.4812188,0.32731075 5.0942627,0.24132894 4.9397689,0.50098337 4.7987318,0.78189953 4.6756836,1.056783 4.5297728,1.0324013 4.3832183,1.02339 4.2364339,1.0216431 h -0.0031 -5.168e-4 c -2.313e-4,-2.14e-5 -0.00132,2.84e-5 -0.00155,0 H 4.2307495 C 4.0836987,1.02339 3.9369318,1.0324013 3.790983,1.056783 3.6680108,0.78189953 3.5271256,0.50098337 3.3724039,0.24132894 Z"
     inkscape:path-effect="#path-effect22" /><g
     id="g23"
     transform="matrix(0.92076123,0.00229559,-0.00229559,0.92076123,-1.3076552,-0.03922943)"><path
       d="m 3.1130956,4.3493305 c 0,0.4577088 -0.3708535,0.8284864 -0.8284104,0.8284864 -0.457329,0 -0.8282965,-0.3707776 -0.8282965,-0.8284864 0,-0.457405 0.3709675,-0.8279926 0.8282965,-0.8279926 0.4575569,0 0.8284104,0.3705876 0.8284104,0.8279926"
       fill="#ffffff"
       id="path4"
       style="display:inline;stroke-width:0.0379778" /><path
       d="m 2.9137642,4.3984677 c 0,0.3035948 -0.2460584,0.5496531 -0.549881,0.5496531 -0.3036707,0 -0.549881,-0.2460583 -0.549881,-0.5496531 0,-0.3035948 0.2462103,-0.549881 0.549881,-0.549881 0.3038226,0 0.549881,0.2462862 0.549881,0.549881"
       fill="#414042"
       id="path5"
       style="display:inline;stroke-width:0.0379778" /><path
       d="m 3.7613728,4.3533001 c 0,0.4577088 0.3708535,0.8284864 0.8284864,0.8284864 0.457291,0 0.8282205,-0.3707776 0.8282205,-0.8284864 0,-0.457405 -0.3709295,-0.8279926 -0.8282205,-0.8279926 -0.4576329,0 -0.8284864,0.3705876 -0.8284864,0.8279926"
       fill="#ffffff"
       id="path7"
       style="display:inline;stroke-width:0.0379778" /><path
       d="m 3.9607546,4.4024373 c 0,0.3035948 0.2459824,0.5496531 0.5495772,0.5496531 0.3038986,0 0.549881,-0.2460583 0.549881,-0.5496531 0,-0.3035948 -0.2459824,-0.549881 -0.549881,-0.549881 -0.3035948,0 -0.5495772,0.2462862 -0.5495772,0.549881"
       fill="#414042"
       id="path8"
       style="display:inline;stroke-width:0.0379778" /></g><rect
     style="display:none;fill:#478cbf;fill-opacity:1;stroke:none;stroke-width:0.0272058;stroke-dasharray:none"
     id="rect14-5"
     width="0.80273396"
     height="0.57370734"
     x="5.3366709"
     y="2.4894469"
     transform="rotate(51.409871)"
     inkscape:transform-center-x="-0.025032076"
     inkscape:transform-center-y="0.49322432" /></svg>
